<svg xmlns="http://www.w3.org/2000/svg" viewBox="0 0 137 30"><g fill="#FFF"><path fill-rule="evenodd" clip-rule="evenodd" d="M43 23.4c.1.2.1.4.1.5 0 .1 0 .2-.1.3-.1.1-.2.1-.4.1H41c-.2 0-.3 0-.4-.1-.1 0-.2-.1-.2-.1 0-.1-.1-.1-.1-.2L34.5 7.2l-3.4 9.9h5.7c.3 0 .4.2.3.5l-.4 1.1c-.1.3-.4.5-.7.5h-5.5L28.9 24c0 .1-.1.2-.1.2l-.2.2c-.1 0-.2.1-.4.1h-1.4c-.2 0-.3-.1-.4-.1-.1-.1-.1-.2-.1-.3 0-.1 0-.3.1-.5L32.9 5c0-.1.1-.2.2-.3.1-.1.2-.1.3-.2.1 0 .3-.1.5-.1h1.6c.2 0 .4 0 .5.1.1 0 .2.1.3.2.1.1.1.2.2.3L43 23.4zM97.4 10.5c0-.8-.2-1.5-.4-2-.3-.5-.7-.9-1.1-1.2-.4-.3-.9-.4-1.4-.5-.5-.1-.9-.1-1.4-.1h-2.4v8H93c.8 0 1.5-.1 2-.3.5-.2 1-.5 1.3-.9.4-.4.6-.8.8-1.3.2-.6.3-1.1.3-1.7m-6.8 13.3c0 .5-.3.7-.7.6l-1.1-.5c-.4-.2-.7-.7-.7-1.2v-17c0-.4.1-.7.3-.9.2-.2.4-.3.7-.3h4.2c.4 0 .8 0 1.2.1.4 0 .9.1 1.4.2.5.1 1.1.3 1.6.7.6.3 1 .7 1.4 1.2.4.5.7 1 .9 1.6.2.6.3 1.3.3 2 0 1-.2 1.9-.5 2.7-.3.8-.8 1.5-1.4 2-.6.6-1.3 1-2.2 1.3-.9.3-1.9.5-3.2.5h-2.2v7z"/><path d="M135.3 18.8c0 .9-.2 1.7-.5 2.4s-.8 1.3-1.4 1.8c-.6.5-1.3.9-2.1 1.1-.8.2-1.7.4-2.6.4-.6 0-1.2-.1-1.8-.2-.6-.1-1-.3-1.5-.4-.4-.2-.8-.3-1.1-.5-.3-.2-.5-.3-.6-.4-.1-.1-.2-.3-.3-.5-.1-.2-.1-.4-.1-.7v-.5c0-.1.1-.3.1-.3 0-.1.1-.2.2-.2h.2c.1 0 .3.1.6.3.2.2.6.4 1 .5.4.2.9.4 1.4.6.6.2 1.2.3 1.9.3.6 0 1.1-.1 1.5-.2.5-.1.9-.4 1.2-.6.3-.3.6-.6.8-1 .2-.4.3-.8.3-1.3s-.1-1-.4-1.4c-.2-.4-.6-.7-1-1-.4-.3-.9-.6-1.4-.8-.5-.2-1.1-.5-1.6-.7-.5-.3-1.1-.5-1.6-.8-.5-.3-1-.7-1.4-1.1-.4-.4-.7-.9-1-1.5-.3-.6-.4-1.2-.4-2s.1-1.5.4-2.2c.3-.6.7-1.2 1.2-1.6.5-.4 1.1-.8 1.9-1 .7-.2 1.5-.3 2.3-.3.4 0 .9 0 1.3.1l1.2.3c.4.1.7.3 1 .4.3.2.5.3.6.4l.2.2c0 .1 0 .1.1.2v1.3c0 .1 0 .3-.1.3 0 .1-.1.2-.1.2-.1 0-.1.1-.2.1s-.3-.1-.5-.2-.5-.3-.9-.5c-.3-.2-.7-.3-1.2-.5-.5-.1-1-.2-1.6-.2-.5 0-1 .1-1.4.2-.4.1-.7.3-1 .6-.3.2-.4.5-.6.8-.1.3-.2.7-.2 1 0 .5.1 1 .4 1.4.2.4.6.7 1 1 .4.3.9.6 1.4.8.5.2 1.1.5 1.6.8.5.3 1.1.5 1.6.8.5.3 1 .7 1.4 1.1.4.4.7.9 1 1.5.7.3.8.9.8 1.7"/><path d="M123.6 18.8c0 .9-.2 1.7-.5 2.4s-.8 1.3-1.4 1.8c-.6.5-1.3.9-2.1 1.1-.8.2-1.7.4-2.6.4-.6 0-1.2-.1-1.8-.2-.6-.1-1-.3-1.5-.4-.4-.2-.8-.3-1.1-.5-.3-.2-.5-.3-.6-.4-.1-.1-.2-.3-.3-.5-.1-.2-.1-.4-.1-.7v-.5c0-.1.1-.3.1-.3 0-.1.1-.2.2-.2h.2c.1 0 .3.1.6.3.2.2.6.4 1 .5.4.2.9.4 1.4.6.6.2 1.2.3 1.9.3.6 0 1.1-.1 1.5-.2.5-.1.9-.4 1.2-.6.3-.3.6-.6.8-1 .2-.4.3-.8.3-1.3s-.1-1-.4-1.4c-.2-.4-.6-.7-1-1-.4-.3-.9-.6-1.4-.8-.5-.2-1.1-.5-1.6-.7-.5-.3-1.1-.5-1.6-.8-.5-.3-1-.7-1.4-1.1-.4-.4-.7-.9-1-1.5-.3-.6-.4-1.2-.4-2s.1-1.5.4-2.2c.3-.6.7-1.2 1.2-1.6.5-.4 1.1-.8 1.9-1 .7-.2 1.5-.3 2.3-.3.4 0 .9 0 1.3.1l1.2.3c.4.1.7.3 1 .4.3.2.5.3.6.4l.2.2c0 .1.1.1.1.2v1.3c0 .1 0 .3-.1.3 0 .1-.1.2-.1.2-.1 0-.1.1-.2.1s-.3-.1-.5-.2-.5-.3-.9-.5c-.3-.2-.7-.3-1.2-.5-.5-.1-1-.2-1.6-.2-.5 0-1 .1-1.4.2-.4.1-.7.3-1 .6-.3.2-.4.5-.6.8-.1.3-.2.7-.2 1 0 .5.1 1 .4 1.4.2.4.6.7 1 1 .4.3.9.6 1.4.8.5.2 1.1.5 1.6.8.5.3 1.1.5 1.6.8.5.3 1 .7 1.4 1.1.4.4.7.9 1 1.5.7.3.8.9.8 1.7zM85.9 17.1c0 1.2-.2 2.2-.5 3.1-.3.9-.8 1.7-1.5 2.3-.6.6-1.4 1.1-2.3 1.4-.9.3-1.9.5-3.1.5-1.1 0-2-.2-2.9-.5-.9-.3-1.6-.8-2.2-1.4-.6-.6-1.1-1.3-1.4-2.3-.3-.9-.5-1.9-.5-3.1V5.3c0-.1 0-.2.1-.2 0-.1.1-.1.2-.1s.2-.1.4-.1h1.2c.2 0 .3.1.4.1.1 0 .2.1.2.1 0 .1.1.1.1.2V17c0 .9.1 1.7.3 2.3.2.7.5 1.2.9 1.7.4.4.9.8 1.5 1 .6.2 1.2.3 1.9.3s1.4-.1 2-.3c.6-.2 1.1-.5 1.5-1 .4-.4.7-1 .9-1.6.2-.6.3-1.4.3-2.3V5.3c0-.1 0-.2.1-.2 0-.1.1-.1.2-.1s.2-.1.4-.1h1.2c.2 0 .3.1.4.1.1 0 .2.1.2.1 0 .1.1.1.1.2v11.8zM70.3 21.5v.7c0 .1-.1.2-.1.2 0 .1-.1.2-.2.2-.1.1-.3.3-.6.5s-.7.4-1.2.6c-.5.2-1 .4-1.6.5-.6.1-1.3.2-2 .2-1.2 0-2.4-.2-3.4-.6-1-.4-1.9-1-2.6-1.8-.7-.8-1.3-1.8-1.6-3-.4-1.2-.6-2.6-.6-4.1 0-1.6.2-3 .6-4.3.4-1.2 1-2.3 1.7-3.2.7-.9 1.6-1.5 2.7-2 1-.5 2.2-.7 3.4-.7.6 0 1.1 0 1.6.2.5.1 1 .2 1.5.4.4.2.8.3 1.2.5.3.2.6.4.7.5.1.2.2.3.2.3 0 .1.1.1.1.2s0 .2.1.3v1c0 .1-.1.3-.1.4 0 .1-.1.2-.1.2-.1 0-.1.1-.2.1s-.3-.1-.6-.3c-.3-.2-.6-.4-1-.6-.4-.2-.9-.4-1.4-.6-.6-.2-1.2-.3-2-.3-.9 0-1.6.2-2.3.5-.7.3-1.3.8-1.8 1.5s-.9 1.5-1.2 2.4c-.3 1-.4 2.1-.4 3.3 0 1.2.1 2.3.4 3.2.3.9.6 1.7 1.1 2.4.5.6 1.1 1.1 1.8 1.4.7.3 1.5.5 2.4.5.8 0 1.4-.1 2-.3.6-.2 1.1-.4 1.5-.6.4-.2.7-.4 1-.6.3-.2.5-.3.6-.3h.2c.1 0 .1.1.1.2s.1.2.1.3v.6zM56.3 21.5v.7c0 .1-.1.2-.1.2 0 .1-.1.2-.2.2-.1.1-.3.3-.6.5s-.7.4-1.2.6c-.5.2-1 .4-1.6.5-.6.1-1.3.2-2 .2-1.2 0-2.4-.2-3.4-.6-1-.4-1.9-1-2.6-1.8-.7-.8-1.3-1.8-1.6-3-.4-1.2-.6-2.6-.6-4.1 0-1.6.2-3 .6-4.3.4-1.2 1-2.3 1.7-3.2.7-.9 1.6-1.5 2.7-2 1-.5 2.2-.7 3.4-.7.6 0 1.1 0 1.6.2.5.1 1 .2 1.5.4.4.2.8.3 1.2.5.3.2.6.4.7.5l.3.3c0 .1.1.1.1.2s0 .2.1.3v1c0 .1-.1.3-.1.4 0 .1-.1.2-.1.2s-.1.1-.2.1-.3-.1-.6-.3c-.2-.2-.6-.4-1-.6-.4-.2-.9-.4-1.4-.6-.6-.2-1.2-.3-2-.3-.9 0-1.6.2-2.3.5-.7.3-1.3.8-1.8 1.5s-.9 1.5-1.2 2.4c-.3 1-.4 2.1-.4 3.3 0 1.2.1 2.3.4 3.2.3.9.6 1.7 1.1 2.4.5.6 1.1 1.1 1.8 1.4.7.3 1.5.5 2.4.5.8 0 1.4-.1 2-.3.6-.2 1.1-.4 1.5-.6.4-.2.7-.4 1-.6.3-.2.5-.3.6-.3h.2c.1 0 .1.1.1.2s.1.2.1.3c-.1.2-.1.4-.1.6z"/><path fill-rule="evenodd" clip-rule="evenodd" d="M114.2 23.4c.1.2.1.4.1.5 0 .1 0 .2-.1.3-.1.1-.2.1-.4.1h-1.6c-.2 0-.3 0-.4-.1-.1 0-.2-.1-.2-.1 0-.1-.1-.1-.1-.2l-5.8-16.8-3.4 9.9h5.7c.3 0 .4.2.3.5l-.4 1.1c-.1.3-.4.5-.7.5h-5.5l-1.6 4.8c0 .1-.1.2-.1.2l-.2.2c-.1 0-.2.1-.4.1H98c-.2 0-.3-.1-.4-.1-.1-.1-.1-.2-.1-.3 0-.1 0-.3.1-.5L104 5c0-.1.1-.2.2-.3.1-.1.2-.1.3-.2.1 0 .3-.1.5-.1h1.6c.2 0 .4 0 .5.1.1 0 .2.1.3.2.1.1.1.2.2.3l6.6 18.4z"/><path d="M18.3.2L2.5 1.8c-.6.1-1 .6-1 1.1v20.7c0 .5.3.9.7 1L13 29.4c.1.1.3.1.5.1s.4-.1.6-.2c.3-.2.5-.6.5-1v-5.1l3.8-.4c.9-.1 1.6-.9 1.6-1.8V1.6C19.9.7 19.2.1 18.3.2zm-.7 19.9c0 .4-.3.7-.7.7l-2.4.3V8c0-.5-.3-.9-.7-1L6.5 3.7l10.3-1.1c.4 0 .8.4.8.8v16.7z"/></g></svg>