<?xml version="1.0" encoding="UTF-8" standalone="no"?>
<svg width="19px" height="19px" viewBox="0 0 19 19" version="1.1" xmlns="http://www.w3.org/2000/svg" xmlns:xlink="http://www.w3.org/1999/xlink" xmlns:sketch="http://www.bohemiancoding.com/sketch/ns">
    <!-- Generator: Sketch 3.3.2 (12043) - http://www.bohemiancoding.com/sketch -->
    <title>Imported Layers Copy 3</title>
    <desc>Created with Sketch.</desc>
    <defs></defs>
    <g id="Welcome" stroke="none" stroke-width="1" fill="none" fill-rule="evenodd" sketch:type="MSPage">
        <g id="App-Tablet-Info" sketch:type="MSArtboardGroup" transform="translate(-95.000000, -701.000000)" fill="#FFFFFF">
            <path d="M111.25675,702.734817 L109.75,702.734817 L109.75,701.987067 C109.75,701.563317 109.414,701.234817 109,701.234817 C108.583,701.234817 108.25,701.571567 108.25,701.987067 L108.25,702.734817 L100.75,702.734817 L100.75,701.987067 C100.75,701.563317 100.414,701.234817 100,701.234817 C99.583,701.234817 99.25,701.571567 99.25,701.987067 L99.25,702.734817 L97.74325,702.734817 C96.5035,702.734817 95.5,703.738317 95.5,704.978067 L95.5,716.991567 C95.5,718.227567 96.5095,719.234817 97.75,719.234817 L109.3105,719.234817 L113.5,715.045317 L113.5,704.978817 C113.5,703.740567 112.495,702.734817 111.25675,702.734817 L111.25675,702.734817 Z M97,704.978067 C97,704.567067 97.33225,704.234817 97.74325,704.234817 L99.25,704.234817 L99.25,705.732567 C99.25,706.156317 99.586,706.484817 100,706.484817 C100.417,706.484817 100.75,706.148067 100.75,705.732567 L100.75,704.234817 L108.25,704.234817 L108.25,705.732567 C108.25,706.156317 108.586,706.484817 109,706.484817 C109.417,706.484817 109.75,706.148067 109.75,705.732567 L109.75,704.234817 L111.25675,704.234817 C111.66625,704.234817 112,704.568567 112,704.978817 L112,707.234817 L97,707.234817 L97,704.978067 L97,704.978067 Z M97.75,717.734817 C97.3375,717.734817 97,717.398067 97,716.991567 L97,708.734817 L112,708.734817 L112,713.984817 L108.25,713.984817 L108.25,717.734817 L97.75,717.734817 L97.75,717.734817 Z" id="Imported-Layers-Copy-3" sketch:type="MSShapeGroup"></path>
        </g>
    </g>
</svg>