<svg width="19" height="19" viewBox="0 0 19 19" xmlns="http://www.w3.org/2000/svg"><title>Imported Layers Copy 3</title><path d="M16.257 1.735H14.75V.987a.75.75 0 0 0-1.5 0v.748h-7.5V.987a.75.75 0 0 0-1.5 0v.748H2.743A2.242 2.242 0 0 0 .5 3.978v12.014a2.25 2.25 0 0 0 2.25 2.243h11.56l4.19-4.19V3.98a2.245 2.245 0 0 0-2.243-2.245zM2 3.978c0-.41.332-.743.743-.743H4.25v1.498a.75.75 0 0 0 1.5 0V3.235h7.5v1.498a.75.75 0 0 0 1.5 0V3.235h1.507c.41 0 .743.334.743.744v2.255H2V3.978zm.75 12.757a.75.75 0 0 1-.75-.743V7.735h15v5.25h-3.75v3.75H2.75z" fill="#FFF" fill-rule="evenodd"/></svg>