<?xml version="1.0" encoding="UTF-8" standalone="no"?>
<svg width="13px" height="18px" viewBox="0 0 13 18" version="1.1" xmlns="http://www.w3.org/2000/svg" xmlns:xlink="http://www.w3.org/1999/xlink" xmlns:sketch="http://www.bohemiancoding.com/sketch/ns">
    <!-- Generator: Sketch 3.3.2 (12043) - http://www.bohemiancoding.com/sketch -->
    <title>Imported Layers Copy 4</title>
    <desc>Created with Sketch.</desc>
    <defs></defs>
    <g id="Welcome" stroke="none" stroke-width="1" fill="none" fill-rule="evenodd" sketch:type="MSPage">
        <g id="App-Tablet-Info" sketch:type="MSArtboardGroup" transform="translate(-98.000000, -726.000000)" fill="#FFFFFF">
            <path d="M104.5,726.234817 C101.19175,726.234817 98.5,728.944567 98.5,732.276817 C98.5,735.345817 103.33375,742.372567 103.885,743.163067 L104.5,744.046567 L105.115,743.163067 C105.66625,742.372567 110.5,735.345817 110.5,732.276817 C110.5,728.944567 107.80825,726.234817 104.5,726.234817 L104.5,726.234817 Z M104.5,727.734817 C105.46825,727.734817 106.36375,728.048317 107.09875,728.575567 L106.01425,729.660067 C105.568,729.396067 105.055,729.234817 104.5,729.234817 C102.8455,729.234817 101.5,730.580317 101.5,732.234817 C101.5,732.789817 101.66125,733.302817 101.92525,733.749067 L100.7785,734.895817 C100.309,733.843567 100,732.910567 100,732.276817 C100,729.772567 102.01825,727.734817 104.5,727.734817 L104.5,727.734817 Z M103,732.234817 C103,731.407567 103.67275,730.734817 104.5,730.734817 C105.32725,730.734817 106,731.407567 106,732.234817 C106,733.062067 105.32725,733.734817 104.5,733.734817 C103.67275,733.734817 103,733.062067 103,732.234817 L103,732.234817 Z M104.5,741.398317 C103.6225,740.074567 102.41575,738.139567 101.47225,736.323067 L102.98575,734.809567 C103.432,735.072817 103.945,735.234817 104.5,735.234817 C106.1545,735.234817 107.5,733.889317 107.5,732.234817 C107.5,731.679817 107.33875,731.166817 107.07475,730.720567 L108.15625,729.639067 C108.685,730.383817 109,731.292817 109,732.276817 C109,734.208817 106.15825,738.897817 104.5,741.398317 L104.5,741.398317 Z" id="Imported-Layers-Copy-4" sketch:type="MSShapeGroup"></path>
        </g>
    </g>
</svg>