<?xml version="1.0" encoding="utf-8"?>
<!-- Generator: Adobe Illustrator 18.1.1, SVG Export Plug-In . SVG Version: 6.00 Build 0)  -->
<svg version="1.1" id="圖層_1" xmlns="http://www.w3.org/2000/svg" xmlns:xlink="http://www.w3.org/1999/xlink" x="0px" y="0px"
	 viewBox="0 0 137 30" enable-background="new 0 0 137 30" xml:space="preserve">
<g>
	<g>
		<path fill-rule="evenodd" clip-rule="evenodd" fill="#FFFFFF" d="M43,23.4c0.1,0.2,0.1,0.4,0.1,0.5c0,0.1,0,0.2-0.1,0.3
			c-0.1,0.1-0.2,0.1-0.4,0.1c-0.2,0-0.4,0-0.8,0c-0.3,0-0.6,0-0.8,0c-0.2,0-0.3,0-0.4-0.1c-0.1,0-0.2-0.1-0.2-0.1
			c0-0.1-0.1-0.1-0.1-0.2L34.5,7.2h0l-3.4,9.9c0.5,0,5.7,0,5.7,0c0.3,0,0.4,0.2,0.3,0.5l-0.4,1.1c-0.1,0.3-0.4,0.5-0.7,0.5l-5.5,0
			l-1.6,4.8c0,0.1-0.1,0.2-0.1,0.2c-0.1,0.1-0.1,0.1-0.2,0.2c-0.1,0-0.2,0.1-0.4,0.1c-0.2,0-0.4,0-0.7,0c-0.3,0-0.5,0-0.7,0
			c-0.2,0-0.3-0.1-0.4-0.1c-0.1-0.1-0.1-0.2-0.1-0.3c0-0.1,0-0.3,0.1-0.5L32.9,5c0-0.1,0.1-0.2,0.2-0.3c0.1-0.1,0.2-0.1,0.3-0.2
			c0.1,0,0.3-0.1,0.5-0.1c0.2,0,0.4,0,0.8,0c0.3,0,0.6,0,0.8,0c0.2,0,0.4,0,0.5,0.1c0.1,0,0.2,0.1,0.3,0.2c0.1,0.1,0.1,0.2,0.2,0.3
			L43,23.4z"/>
		<path fill-rule="evenodd" clip-rule="evenodd" fill="#FFFFFF" d="M97.4,10.5c0-0.8-0.2-1.5-0.4-2c-0.3-0.5-0.7-0.9-1.1-1.2
			c-0.4-0.3-0.9-0.4-1.4-0.5c-0.5-0.1-0.9-0.1-1.4-0.1h-2.4v8H93c0.8,0,1.5-0.1,2-0.3c0.5-0.2,1-0.5,1.3-0.9
			c0.4-0.4,0.6-0.8,0.8-1.3C97.3,11.6,97.4,11.1,97.4,10.5 M90.6,23.8c0,0.5-0.3,0.7-0.7,0.6l-1.1-0.5c-0.4-0.2-0.7-0.7-0.7-1.2
			l0-17c0-0.4,0.1-0.7,0.3-0.9c0.2-0.2,0.4-0.3,0.7-0.3h4.2c0.4,0,0.8,0,1.2,0.1c0.4,0,0.9,0.1,1.4,0.2c0.5,0.1,1.1,0.3,1.6,0.7
			c0.6,0.3,1,0.7,1.4,1.2c0.4,0.5,0.7,1,0.9,1.6c0.2,0.6,0.3,1.3,0.3,2c0,1-0.2,1.9-0.5,2.7c-0.3,0.8-0.8,1.5-1.4,2
			c-0.6,0.6-1.3,1-2.2,1.3c-0.9,0.3-1.9,0.5-3.2,0.5h-2.2L90.6,23.8z"/>
		<path fill="#FFFFFF" d="M135.3,18.8c0,0.9-0.2,1.7-0.5,2.4c-0.3,0.7-0.8,1.3-1.4,1.8c-0.6,0.5-1.3,0.9-2.1,1.1
			c-0.8,0.2-1.7,0.4-2.6,0.4c-0.6,0-1.2-0.1-1.8-0.2c-0.6-0.1-1-0.3-1.5-0.4c-0.4-0.2-0.8-0.3-1.1-0.5c-0.3-0.2-0.5-0.3-0.6-0.4
			c-0.1-0.1-0.2-0.3-0.3-0.5c-0.1-0.2-0.1-0.4-0.1-0.7c0-0.2,0-0.4,0-0.5c0-0.1,0.1-0.3,0.1-0.3c0-0.1,0.1-0.2,0.2-0.2
			c0.1,0,0.1,0,0.2,0c0.1,0,0.3,0.1,0.6,0.3c0.2,0.2,0.6,0.4,1,0.5c0.4,0.2,0.9,0.4,1.4,0.6c0.6,0.2,1.2,0.3,1.9,0.3
			c0.6,0,1.1-0.1,1.5-0.2c0.5-0.1,0.9-0.4,1.2-0.6c0.3-0.3,0.6-0.6,0.8-1c0.2-0.4,0.3-0.8,0.3-1.3c0-0.5-0.1-1-0.4-1.4
			c-0.2-0.4-0.6-0.7-1-1c-0.4-0.3-0.9-0.6-1.4-0.8c-0.5-0.2-1.1-0.5-1.6-0.7c-0.5-0.3-1.1-0.5-1.6-0.8c-0.5-0.3-1-0.7-1.4-1.1
			c-0.4-0.4-0.7-0.9-1-1.5c-0.3-0.6-0.4-1.2-0.4-2c0-0.8,0.1-1.5,0.4-2.2c0.3-0.6,0.7-1.2,1.2-1.6c0.5-0.4,1.1-0.8,1.9-1
			c0.7-0.2,1.5-0.3,2.3-0.3c0.4,0,0.9,0,1.3,0.1c0.4,0.1,0.8,0.2,1.2,0.3c0.4,0.1,0.7,0.3,1,0.4c0.3,0.2,0.5,0.3,0.6,0.4
			c0.1,0.1,0.2,0.2,0.2,0.2c0,0.1,0,0.1,0.1,0.2c0,0.1,0,0.2,0,0.3c0,0.1,0,0.3,0,0.5c0,0.2,0,0.3,0,0.5c0,0.1,0,0.3-0.1,0.3
			c0,0.1-0.1,0.2-0.1,0.2c-0.1,0-0.1,0.1-0.2,0.1c-0.1,0-0.3-0.1-0.5-0.2c-0.2-0.1-0.5-0.3-0.9-0.5c-0.3-0.2-0.7-0.3-1.2-0.5
			c-0.5-0.1-1-0.2-1.6-0.2c-0.5,0-1,0.1-1.4,0.2c-0.4,0.1-0.7,0.3-1,0.6c-0.3,0.2-0.4,0.5-0.6,0.8c-0.1,0.3-0.2,0.7-0.2,1
			c0,0.5,0.1,1,0.4,1.4c0.2,0.4,0.6,0.7,1,1c0.4,0.3,0.9,0.6,1.4,0.8c0.5,0.2,1.1,0.5,1.6,0.8c0.5,0.3,1.1,0.5,1.6,0.8
			c0.5,0.3,1,0.7,1.4,1.1c0.4,0.4,0.7,0.9,1,1.5C135.2,17.4,135.3,18,135.3,18.8"/>
		<path fill="#FFFFFF" d="M123.6,18.8c0,0.9-0.2,1.7-0.5,2.4c-0.3,0.7-0.8,1.3-1.4,1.8c-0.6,0.5-1.3,0.9-2.1,1.1
			c-0.8,0.2-1.7,0.4-2.6,0.4c-0.6,0-1.2-0.1-1.8-0.2c-0.6-0.1-1-0.3-1.5-0.4c-0.4-0.2-0.8-0.3-1.1-0.5c-0.3-0.2-0.5-0.3-0.6-0.4
			c-0.1-0.1-0.2-0.3-0.3-0.5c-0.1-0.2-0.1-0.4-0.1-0.7c0-0.2,0-0.4,0-0.5c0-0.1,0.1-0.3,0.1-0.3c0-0.1,0.1-0.2,0.2-0.2
			c0.1,0,0.1,0,0.2,0c0.1,0,0.3,0.1,0.6,0.3c0.2,0.2,0.6,0.4,1,0.5c0.4,0.2,0.9,0.4,1.4,0.6c0.6,0.2,1.2,0.3,1.9,0.3
			c0.6,0,1.1-0.1,1.5-0.2c0.5-0.1,0.9-0.4,1.2-0.6c0.3-0.3,0.6-0.6,0.8-1c0.2-0.4,0.3-0.8,0.3-1.3c0-0.5-0.1-1-0.4-1.4
			c-0.2-0.4-0.6-0.7-1-1c-0.4-0.3-0.9-0.6-1.4-0.8c-0.5-0.2-1.1-0.5-1.6-0.7c-0.5-0.3-1.1-0.5-1.6-0.8c-0.5-0.3-1-0.7-1.4-1.1
			c-0.4-0.4-0.7-0.9-1-1.5c-0.3-0.6-0.4-1.2-0.4-2c0-0.8,0.1-1.5,0.4-2.2c0.3-0.6,0.7-1.2,1.2-1.6c0.5-0.4,1.1-0.8,1.9-1
			c0.7-0.2,1.5-0.3,2.3-0.3c0.4,0,0.9,0,1.3,0.1c0.4,0.1,0.8,0.2,1.2,0.3c0.4,0.1,0.7,0.3,1,0.4c0.3,0.2,0.5,0.3,0.6,0.4
			c0.1,0.1,0.2,0.2,0.2,0.2c0,0.1,0.1,0.1,0.1,0.2c0,0.1,0,0.2,0,0.3c0,0.1,0,0.3,0,0.5c0,0.2,0,0.3,0,0.5c0,0.1,0,0.3-0.1,0.3
			c0,0.1-0.1,0.2-0.1,0.2c-0.1,0-0.1,0.1-0.2,0.1c-0.1,0-0.3-0.1-0.5-0.2c-0.2-0.1-0.5-0.3-0.9-0.5c-0.3-0.2-0.7-0.3-1.2-0.5
			c-0.5-0.1-1-0.2-1.6-0.2c-0.5,0-1,0.1-1.4,0.2c-0.4,0.1-0.7,0.3-1,0.6c-0.3,0.2-0.4,0.5-0.6,0.8c-0.1,0.3-0.2,0.7-0.2,1
			c0,0.5,0.1,1,0.4,1.4c0.2,0.4,0.6,0.7,1,1c0.4,0.3,0.9,0.6,1.4,0.8c0.5,0.2,1.1,0.5,1.6,0.8c0.5,0.3,1.1,0.5,1.6,0.8
			c0.5,0.3,1,0.7,1.4,1.1c0.4,0.4,0.7,0.9,1,1.5C123.5,17.4,123.6,18,123.6,18.8z"/>
		<path fill="#FFFFFF" d="M85.9,17.1c0,1.2-0.2,2.2-0.5,3.1c-0.3,0.9-0.8,1.7-1.5,2.3c-0.6,0.6-1.4,1.1-2.3,1.4
			c-0.9,0.3-1.9,0.5-3.1,0.5c-1.1,0-2-0.2-2.9-0.5c-0.9-0.3-1.6-0.8-2.2-1.4c-0.6-0.6-1.1-1.3-1.4-2.3c-0.3-0.9-0.5-1.9-0.5-3.1V5.3
			c0-0.1,0-0.2,0.1-0.2c0-0.1,0.1-0.1,0.2-0.1c0.1,0,0.2-0.1,0.4-0.1c0.2,0,0.4,0,0.6,0c0.2,0,0.4,0,0.6,0c0.2,0,0.3,0.1,0.4,0.1
			c0.1,0,0.2,0.1,0.2,0.1c0,0.1,0.1,0.1,0.1,0.2V17c0,0.9,0.1,1.7,0.3,2.3c0.2,0.7,0.5,1.2,0.9,1.7c0.4,0.4,0.9,0.8,1.5,1
			c0.6,0.2,1.2,0.3,1.9,0.3c0.7,0,1.4-0.1,2-0.3c0.6-0.2,1.1-0.5,1.5-1c0.4-0.4,0.7-1,0.9-1.6c0.2-0.6,0.3-1.4,0.3-2.3V5.3
			c0-0.1,0-0.2,0.1-0.2c0-0.1,0.1-0.1,0.2-0.1c0.1,0,0.2-0.1,0.4-0.1c0.2,0,0.4,0,0.6,0c0.2,0,0.4,0,0.6,0c0.2,0,0.3,0.1,0.4,0.1
			c0.1,0,0.2,0.1,0.2,0.1c0,0.1,0.1,0.1,0.1,0.2V17.1z"/>
		<path fill="#FFFFFF" d="M70.3,21.5c0,0.2,0,0.3,0,0.4c0,0.1,0,0.2,0,0.3c0,0.1-0.1,0.2-0.1,0.2c0,0.1-0.1,0.2-0.2,0.2
			c-0.1,0.1-0.3,0.3-0.6,0.5c-0.3,0.2-0.7,0.4-1.2,0.6c-0.5,0.2-1,0.4-1.6,0.5c-0.6,0.1-1.3,0.2-2,0.2c-1.2,0-2.4-0.2-3.4-0.6
			c-1-0.4-1.9-1-2.6-1.8c-0.7-0.8-1.3-1.8-1.6-3c-0.4-1.2-0.6-2.6-0.6-4.1c0-1.6,0.2-3,0.6-4.3c0.4-1.2,1-2.3,1.7-3.2
			c0.7-0.9,1.6-1.5,2.7-2c1-0.5,2.2-0.7,3.4-0.7c0.6,0,1.1,0,1.6,0.2c0.5,0.1,1,0.2,1.5,0.4c0.4,0.2,0.8,0.3,1.2,0.5
			c0.3,0.2,0.6,0.4,0.7,0.5C69.9,6.5,70,6.6,70,6.6c0,0.1,0.1,0.1,0.1,0.2c0,0.1,0,0.2,0.1,0.3c0,0.1,0,0.3,0,0.5c0,0.2,0,0.4,0,0.5
			c0,0.1-0.1,0.3-0.1,0.4c0,0.1-0.1,0.2-0.1,0.2c-0.1,0-0.1,0.1-0.2,0.1c-0.1,0-0.3-0.1-0.6-0.3c-0.3-0.2-0.6-0.4-1-0.6
			c-0.4-0.2-0.9-0.4-1.4-0.6c-0.6-0.2-1.2-0.3-2-0.3c-0.9,0-1.6,0.2-2.3,0.5c-0.7,0.3-1.3,0.8-1.8,1.5c-0.5,0.7-0.9,1.5-1.2,2.4
			c-0.3,1-0.4,2.1-0.4,3.3c0,1.2,0.1,2.3,0.4,3.2c0.3,0.9,0.6,1.7,1.1,2.4c0.5,0.6,1.1,1.1,1.8,1.4c0.7,0.3,1.5,0.5,2.4,0.5
			c0.8,0,1.4-0.1,2-0.3c0.6-0.2,1.1-0.4,1.5-0.6c0.4-0.2,0.7-0.4,1-0.6c0.3-0.2,0.5-0.3,0.6-0.3c0.1,0,0.1,0,0.2,0
			c0.1,0,0.1,0.1,0.1,0.2c0,0.1,0.1,0.2,0.1,0.3C70.3,21.1,70.3,21.3,70.3,21.5z"/>
		<path fill="#FFFFFF" d="M56.3,21.5c0,0.2,0,0.3,0,0.4c0,0.1,0,0.2,0,0.3c0,0.1-0.1,0.2-0.1,0.2c0,0.1-0.1,0.2-0.2,0.2
			c-0.1,0.1-0.3,0.3-0.6,0.5c-0.3,0.2-0.7,0.4-1.2,0.6c-0.5,0.2-1,0.4-1.6,0.5c-0.6,0.1-1.3,0.2-2,0.2c-1.2,0-2.4-0.2-3.4-0.6
			c-1-0.4-1.9-1-2.6-1.8c-0.7-0.8-1.3-1.8-1.6-3c-0.4-1.2-0.6-2.6-0.6-4.1c0-1.6,0.2-3,0.6-4.3c0.4-1.2,1-2.3,1.7-3.2
			c0.7-0.9,1.6-1.5,2.7-2c1-0.5,2.2-0.7,3.4-0.7c0.6,0,1.1,0,1.6,0.2c0.5,0.1,1,0.2,1.5,0.4c0.4,0.2,0.8,0.3,1.2,0.5
			c0.3,0.2,0.6,0.4,0.7,0.5c0.1,0.1,0.2,0.2,0.3,0.3c0,0.1,0.1,0.1,0.1,0.2c0,0.1,0,0.2,0.1,0.3c0,0.1,0,0.3,0,0.5
			c0,0.2,0,0.4,0,0.5c0,0.1-0.1,0.3-0.1,0.4c0,0.1-0.1,0.2-0.1,0.2c0,0-0.1,0.1-0.2,0.1c-0.1,0-0.3-0.1-0.6-0.3
			c-0.2-0.2-0.6-0.4-1-0.6c-0.4-0.2-0.9-0.4-1.4-0.6c-0.6-0.2-1.2-0.3-2-0.3c-0.9,0-1.6,0.2-2.3,0.5c-0.7,0.3-1.3,0.8-1.8,1.5
			c-0.5,0.7-0.9,1.5-1.2,2.4c-0.3,1-0.4,2.1-0.4,3.3c0,1.2,0.1,2.3,0.4,3.2c0.3,0.9,0.6,1.7,1.1,2.4c0.5,0.6,1.1,1.1,1.8,1.4
			c0.7,0.3,1.5,0.5,2.4,0.5c0.8,0,1.4-0.1,2-0.3c0.6-0.2,1.1-0.4,1.5-0.6c0.4-0.2,0.7-0.4,1-0.6c0.3-0.2,0.5-0.3,0.6-0.3
			c0.1,0,0.1,0,0.2,0c0.1,0,0.1,0.1,0.1,0.2c0,0.1,0.1,0.2,0.1,0.3C56.3,21.1,56.3,21.3,56.3,21.5z"/>
		<path fill-rule="evenodd" clip-rule="evenodd" fill="#FFFFFF" d="M114.2,23.4c0.1,0.2,0.1,0.4,0.1,0.5c0,0.1,0,0.2-0.1,0.3
			c-0.1,0.1-0.2,0.1-0.4,0.1c-0.2,0-0.4,0-0.8,0c-0.3,0-0.6,0-0.8,0c-0.2,0-0.3,0-0.4-0.1c-0.1,0-0.2-0.1-0.2-0.1
			c0-0.1-0.1-0.1-0.1-0.2l-5.8-16.8h0l-3.4,9.9c0.5,0,5.7,0,5.7,0c0.3,0,0.4,0.2,0.3,0.5l-0.4,1.1c-0.1,0.3-0.4,0.5-0.7,0.5l-5.5,0
			l-1.6,4.8c0,0.1-0.1,0.2-0.1,0.2c-0.1,0.1-0.1,0.1-0.2,0.2c-0.1,0-0.2,0.1-0.4,0.1c-0.2,0-0.4,0-0.7,0c-0.3,0-0.5,0-0.7,0
			c-0.2,0-0.3-0.1-0.4-0.1c-0.1-0.1-0.1-0.2-0.1-0.3c0-0.1,0-0.3,0.1-0.5L104,5c0-0.1,0.1-0.2,0.2-0.3c0.1-0.1,0.2-0.1,0.3-0.2
			c0.1,0,0.3-0.1,0.5-0.1c0.2,0,0.4,0,0.8,0c0.3,0,0.6,0,0.8,0c0.2,0,0.4,0,0.5,0.1c0.1,0,0.2,0.1,0.3,0.2c0.1,0.1,0.1,0.2,0.2,0.3
			L114.2,23.4z"/>
	</g>
	<path fill="#FFFFFF" d="M18.3,0.2L2.5,1.8c-0.6,0.1-1,0.6-1,1.1v0.2v20.3v0.2c0,0.5,0.3,0.9,0.7,1l10.8,4.8
		c0.1,0.1,0.3,0.1,0.5,0.1c0.2,0,0.4-0.1,0.6-0.2c0.3-0.2,0.5-0.6,0.5-1v-5.1l3.8-0.4c0.9-0.1,1.6-0.9,1.6-1.8V1.6
		C19.9,0.7,19.2,0.1,18.3,0.2z M17.6,20.1c0,0.4-0.3,0.7-0.7,0.7l-2.4,0.3V8c0-0.5-0.3-0.9-0.7-1L6.5,3.7l10.3-1.1
		c0.4,0,0.8,0.4,0.8,0.8V20.1z"/>
</g>
</svg>
