<?xml version="1.0" encoding="UTF-8" standalone="no"?>
<svg width="141px" height="27px" viewBox="0 0 141 27" version="1.1" xmlns="http://www.w3.org/2000/svg" xmlns:xlink="http://www.w3.org/1999/xlink" xmlns:sketch="http://www.bohemiancoding.com/sketch/ns">
    <!-- Generator: Sketch 3.3.2 (12043) - http://www.bohemiancoding.com/sketch -->
    <title>accuvally_inc</title>
    <desc>Created with Sketch.</desc>
    <defs></defs>
    <g id="Page-1" stroke="none" stroke-width="1" fill="none" fill-rule="evenodd" sketch:type="MSPage">
        <g id="iPhone-5/5S/5C" sketch:type="MSArtboardGroup" transform="translate(-87.000000, -3438.000000)" fill="#6C6C6C">
            <g id="accuvally_inc" sketch:type="MSLayerGroup" transform="translate(87.000000, 3437.799678)">
                <path d="M16.9947524,19.8821803 C16.7481143,19.8472131 16.5153524,19.8303934 16.2955714,19.8303934 L15.5968381,19.8303934 L14.8976571,19.8303934 C14.6774286,19.8303934 14.4446667,19.8472131 14.1984762,19.8821803 C14.075381,19.4829344 13.908419,19.0000328 13.6971429,18.4348033 C13.4863143,17.8700164 13.2531048,17.2782295 12.9984095,16.6612131 C12.7432667,16.0441967 12.4840952,15.4178852 12.22,14.7827213 C11.9563524,14.1484426 11.7101619,13.5438197 11.4814286,12.9701803 C10.9183238,12.952918 10.3471619,12.9396393 9.76704762,12.9307869 C9.18648571,12.922377 8.60637143,12.9179508 8.02580952,12.9179508 C7.48060952,12.9179508 6.9443619,12.922377 6.41661905,12.9307869 C5.88932381,12.9396393 5.35262857,12.952918 4.80742857,12.9701803 C4.24432381,14.326377 3.73448571,15.6175082 3.27746667,16.8435738 C2.82,18.0696393 2.47712381,19.0828033 2.2488381,19.8821803 C1.94938095,19.8472131 1.62440952,19.8303934 1.27258095,19.8303934 C0.920752381,19.8303934 0.595780952,19.8472131 0.296771429,19.8821803 C1.72154286,16.8395902 3.11050476,13.813377 4.46455238,10.8053115 C5.8186,7.79680328 7.1816,4.73606557 8.55310476,1.62309836 L9.05488571,1.62309836 C9.47654286,2.63183607 9.93400952,3.72290164 10.4263905,4.89718033 C10.9183238,6.07057377 11.4196571,7.25768852 11.9299429,8.45719672 C12.439781,9.65714754 12.949619,10.8486885 13.4599048,12.0309344 C13.9697429,13.213623 14.4491429,14.3130984 14.8976571,15.3306885 C15.3461714,16.3478361 15.7503714,17.2569836 16.1111524,18.0563607 C16.4714857,18.856623 16.766019,19.4652295 16.9947524,19.8821803 L16.9947524,19.8821803 Z M5.3087619,11.7702295 C5.76578095,11.7702295 6.24070476,11.779082 6.73353333,11.7963443 C7.22546667,11.8136066 7.70039048,11.8220164 8.15785714,11.8220164 C8.64979048,11.8220164 9.14261905,11.8180328 9.635,11.8091803 C10.127381,11.8007705 10.6197619,11.7874918 11.1121429,11.7702295 L8.18426667,5.14460656 L5.3087619,11.7702295 L5.3087619,11.7702295 Z" id="Fill-1" sketch:type="MSShapeGroup"></path>
                <path d="M18.0762,10.8053115 C18.4629429,9.98778689 18.9687524,9.31367213 19.593181,8.78340984 C20.2171619,8.25314754 20.9338,7.86186885 21.7426476,7.60957377 C22.5514952,7.35772131 23.3786952,7.23113115 24.2224571,7.23113115 C25.1893143,7.23113115 26.0559048,7.34842623 26.8208857,7.58345902 C27.5858667,7.8184918 28.1350952,8.08362295 28.4694667,8.37929508 C28.3463714,8.64 28.2362571,8.91354098 28.140019,9.20080328 C28.0428857,9.48762295 27.959181,9.78772131 27.8893524,10.1006557 L27.6785238,10.1006557 C27.554981,9.87491803 27.388019,9.64431148 27.1771905,9.40972131 C26.9659143,9.17468852 26.7152476,8.95736066 26.4251905,8.75729508 C26.1351333,8.55767213 25.8137429,8.39213115 25.4623619,8.26155738 C25.1105333,8.13142623 24.7237905,8.06636066 24.3016857,8.06636066 C23.5102952,8.06636066 22.8281238,8.20932787 22.2569619,8.49614754 C21.6853524,8.78340984 21.219381,9.17911475 20.8590476,9.6832623 C20.4982667,10.1882951 20.2350667,10.7831803 20.0681048,11.4701311 C19.9006952,12.1575246 19.8169905,12.9006885 19.8169905,13.7005082 C19.8169905,15.4913607 20.2037333,16.8435738 20.9776667,17.7562623 C21.7511524,18.6698361 22.8858667,19.1257377 24.3804667,19.1257377 C24.7322952,19.1257377 25.0930762,19.078377 25.4623619,18.9827705 C25.8312,18.8871639 26.191981,18.7565902 26.5438095,18.5910492 C26.8951905,18.4259508 27.2250857,18.2303115 27.5330476,18.0041311 C27.8405619,17.7783934 28.1086857,17.5349508 28.337419,17.2738033 L28.4694667,17.3521475 C28.3812857,17.769541 28.3284667,18.1957869 28.3114571,18.6304426 C27.7837143,19.0478361 27.1284,19.4041475 26.3459619,19.6998197 C25.5630762,19.9954918 24.7502,20.1433279 23.9059905,20.1433279 C23.1495143,20.1433279 22.3890095,20.0344426 21.6240286,19.8171148 C20.8590476,19.5997869 20.168819,19.234623 19.5537905,18.721623 C18.9378667,18.2090656 18.4410095,17.5438033 18.063219,16.7262787 C17.6845333,15.9087541 17.4956381,14.9093115 17.4956381,13.726623 C17.4956381,12.5961639 17.6894571,11.6223934 18.0762,10.8053115" id="Fill-2" sketch:type="MSShapeGroup"></path>
                <path d="M30.2102571,10.8053115 C30.597,9.98778689 31.1028095,9.31367213 31.7272381,8.78340984 C32.351219,8.25314754 33.0683048,7.86186885 33.8771524,7.60957377 C34.686,7.35772131 35.5127524,7.23113115 36.3565143,7.23113115 C37.323819,7.23113115 38.1899619,7.34842623 38.9549429,7.58345902 C39.7199238,7.8184918 40.2696,8.08362295 40.6035238,8.37929508 C40.4804286,8.64 40.3707619,8.91354098 40.2740762,9.20080328 C40.1773905,9.48762295 40.0936857,9.78772131 40.0234095,10.1006557 L39.812581,10.1006557 C39.6894857,9.87491803 39.5220762,9.64431148 39.3112476,9.40972131 C39.100419,9.17468852 38.8497524,8.95736066 38.5592476,8.75729508 C38.2691905,8.55767213 37.9482476,8.39213115 37.5968667,8.26155738 C37.2445905,8.13142623 36.8578476,8.06636066 36.4357429,8.06636066 C35.6448,8.06636066 34.9626286,8.20932787 34.3914667,8.49614754 C33.8198571,8.78340984 33.3534381,9.17911475 32.9935524,9.6832623 C32.6327714,10.1882951 32.3691238,10.7831803 32.2021619,11.4701311 C32.0347524,12.1575246 31.9510476,12.9006885 31.9510476,13.7005082 C31.9510476,15.4913607 32.3382381,16.8435738 33.1121714,17.7562623 C33.8856571,18.6698361 35.0199238,19.1257377 36.5149714,19.1257377 C36.8668,19.1257377 37.2271333,19.078377 37.5968667,18.9827705 C37.9657048,18.8871639 38.3260381,18.7565902 38.6778667,18.5910492 C39.0296952,18.4259508 39.3595905,18.2303115 39.6671048,18.0041311 C39.9750667,17.7783934 40.2431905,17.5349508 40.4714762,17.2738033 L40.6035238,17.3521475 C40.5157905,17.769541 40.4629714,18.1957869 40.4455143,18.6304426 C39.9177714,19.0478361 39.2624571,19.4041475 38.480019,19.6998197 C37.697581,19.9954918 36.8842571,20.1433279 36.0400476,20.1433279 C35.284019,20.1433279 34.5235143,20.0344426 33.7585333,19.8171148 C32.9935524,19.5997869 32.3033238,19.234623 31.6878476,18.721623 C31.0719238,18.2090656 30.5750667,17.5438033 30.1972762,16.7262787 C29.8190381,15.9087541 29.6301429,14.9093115 29.6301429,13.726623 C29.6301429,12.5961639 29.8235143,11.6223934 30.2102571,10.8053115" id="Fill-3" sketch:type="MSShapeGroup"></path>
                <path d="M42.7010667,13.5827705 C42.7274762,12.9307869 42.7404571,12.2832295 42.7404571,11.6396557 C42.7404571,11.0310492 42.735981,10.3706557 42.7274762,9.65714754 C42.7180762,8.94408197 42.7050952,8.22260656 42.6880857,7.49227869 C43.1272,7.57947541 43.4964857,7.62285246 43.7954952,7.62285246 C44.0766,7.62285246 44.437381,7.57947541 44.8773905,7.49227869 C44.7892095,8.53554098 44.7234095,9.67927869 44.6795429,10.9226066 C44.6352286,12.1659344 44.6137429,13.4393607 44.6137429,14.7437705 C44.6137429,15.6480492 44.6925238,16.3394262 44.850981,16.817459 C45.0089905,17.2959344 45.2028095,17.6566721 45.4315429,17.9001148 C45.6768381,18.1785246 45.9892762,18.4086885 46.3675143,18.5910492 C46.7457524,18.7738525 47.1893429,18.8650328 47.7000762,18.8650328 C48.4382,18.8650328 49.0536762,18.7043607 49.5465048,18.3825738 C50.0384381,18.0607869 50.3987714,17.6655246 50.6279524,17.1959016 C50.7501524,16.9002295 50.8472857,16.6479344 50.9175619,16.439459 C50.9882857,16.230541 51.045581,15.9525738 51.0894476,15.6046721 C51.1333143,15.2567705 51.1592762,14.7875902 51.1686762,14.1958033 C51.1776286,13.6049016 51.1816571,12.7966721 51.1816571,11.7702295 L51.1816571,9.5792459 C51.1816571,9.19681967 51.1776286,8.83165574 51.1686762,8.4837541 C51.1592762,8.13585246 51.1462952,7.80521311 51.1288381,7.49227869 C51.3226571,7.5272459 51.5070762,7.55734426 51.6829905,7.58345902 C51.8584571,7.60957377 52.0433238,7.62285246 52.2371429,7.62285246 C52.4305143,7.62285246 52.6149333,7.60957377 52.7908476,7.58345902 C52.9667619,7.55734426 53.1422286,7.5272459 53.3185905,7.49227869 C53.2304095,8.84847541 53.1775905,10.1573115 53.1601333,11.4179016 C53.1422286,12.6789344 53.1341714,14.0134426 53.1341714,15.4218689 C53.1341714,16.2044262 53.1422286,16.9697213 53.1601333,17.7173115 C53.1775905,18.4653443 53.204,19.1872623 53.2393619,19.8821803 C52.8875333,19.8472131 52.5442095,19.8303934 52.2107333,19.8303934 C51.8763619,19.8303934 51.5334857,19.8472131 51.1816571,19.8821803 C51.1991143,19.7259344 51.2125429,19.5608361 51.2214952,19.3868852 C51.2304476,19.213377 51.2344762,19.0310164 51.2344762,18.838918 L51.2344762,17.7173115 L51.1816571,17.7173115 C50.7246381,18.5520984 50.1351238,19.1651311 49.4144571,19.5564098 C48.6933429,19.9476885 47.9109048,20.1433279 47.0666952,20.1433279 C45.6951905,20.1433279 44.6173238,19.7825902 43.8353333,19.0606721 C43.0524476,18.3391967 42.6616762,17.299918 42.6616762,15.9432787 C42.6616762,15.0221803 42.6746571,14.2351967 42.7010667,13.5827705" id="Fill-4" sketch:type="MSShapeGroup"></path>
                <path d="M57.4998,13.726623 C56.6815524,11.674623 55.789,9.5965082 54.8216952,7.49227869 C55.0504286,7.5272459 55.2702095,7.55734426 55.4814857,7.58345902 C55.6923143,7.60957377 55.9125429,7.62285246 56.1408286,7.62285246 C56.3342,7.62285246 56.5275714,7.60957377 56.7213905,7.58345902 C56.9143143,7.55734426 57.1081333,7.5272459 57.3015048,7.49227869 C57.8467048,9.21363934 58.4402476,10.9053443 59.082581,12.565623 C59.7235714,14.2267869 60.4406571,15.926459 61.2320476,17.6655246 C61.5838762,16.952459 61.9312286,16.1827377 62.2741048,15.3568033 C62.616981,14.5308689 62.9598571,13.6743934 63.3027333,12.787377 C63.6460571,11.9003607 63.979981,11.0093607 64.3054,10.1139344 C64.6303714,9.21806557 64.9517619,8.34432787 65.2682286,7.49227869 C65.5846952,7.57947541 65.8568476,7.62285246 66.0860286,7.62285246 C66.3143143,7.62285246 66.5869143,7.57947541 66.9038286,7.49227869 C65.953981,9.5965082 65.0215905,11.674623 64.1075524,13.726623 C63.192619,15.778623 62.3573619,17.830623 61.601781,19.8821803 C61.3376857,19.8472131 61.0646381,19.8303934 60.783981,19.8303934 C60.5024286,19.8303934 60.2208762,19.8472131 59.9397714,19.8821803 C59.1304762,17.830623 58.3176,15.778623 57.4998,13.726623" id="Fill-5" sketch:type="MSShapeGroup"></path>
                <path d="M78.3096095,19.8666885 C78.138619,19.8423443 77.9770286,19.8303934 77.8239429,19.8303934 L77.3387238,19.8303934 L76.8530571,19.8303934 C76.7008667,19.8303934 76.5388286,19.8423443 76.3673905,19.8666885 C76.2823429,19.5887213 76.1664095,19.2536557 76.0200381,18.8614918 C75.8736667,18.4688852 75.7116286,18.0581311 75.5343714,17.6296721 C75.3575619,17.2007705 75.1771714,16.7661148 74.9940952,16.3252623 C74.811019,15.8844098 74.6400286,15.4648033 74.4811238,15.0664426 C74.0903524,15.0544918 73.6937619,15.0451967 73.2900095,15.039 C72.8876,15.0332459 72.4847429,15.0297049 72.0814381,15.0297049 C71.7023048,15.0297049 71.330781,15.0332459 70.964181,15.039 C70.597581,15.0451967 70.2247143,15.0544918 69.8469238,15.0664426 C69.4561524,16.0083443 69.1011905,16.9046557 68.7842762,17.7562623 C68.4664667,18.6078689 68.2283333,19.3111967 68.0698762,19.8666885 C67.8617333,19.8423443 67.6356857,19.8303934 67.3917333,19.8303934 C67.1473333,19.8303934 66.9212857,19.8423443 66.7144857,19.8666885 C67.7032762,17.7531639 68.6678952,15.6520328 69.6083429,13.5628525 C70.5487905,11.4736721 71.4955048,9.34819672 72.4480381,7.18642623 L72.7958381,7.18642623 C73.088581,7.88709836 73.4063905,8.64486885 73.7483714,9.4597377 C74.0903524,10.2750492 74.4381524,11.0992131 74.7926667,11.9322295 C75.1467333,12.7656885 75.5008,13.5929508 75.8553143,14.4140164 C76.2089333,15.2355246 76.5419619,15.9990492 76.8530571,16.7054754 C77.1650476,17.4119016 77.4457048,18.0435246 77.6959238,18.5985738 C77.9465905,19.1540656 78.1511524,19.5767705 78.3096095,19.8666885 L78.3096095,19.8666885 Z M70.1947238,14.2329836 C70.5120857,14.2329836 70.8415333,14.2391803 71.1835143,14.2511311 C71.5254952,14.2635246 71.8549429,14.2692787 72.1732,14.2692787 C72.5147333,14.2692787 72.8567143,14.2661803 73.1986952,14.2599836 C73.5406762,14.2542295 73.8831048,14.2449344 74.2246381,14.2329836 L72.1911048,9.63191803 L70.1947238,14.2329836 L70.1947238,14.2329836 Z" id="Fill-6" sketch:type="MSShapeGroup"></path>
                <path d="M80.5656095,5.79659016 C80.5566571,5.10122951 80.5436762,4.41427869 80.5257714,3.7357377 C80.5083143,3.05763934 80.4868286,2.41008197 80.460419,1.79262295 C80.4335619,1.17560656 80.4031238,0.649327869 80.3677619,0.214672131 C80.8601429,0.301868852 81.2553905,0.345245902 81.5548476,0.345245902 C81.8534095,0.345245902 82.2495524,0.301868852 82.742381,0.214672131 C82.7065714,0.649327869 82.6761333,1.17560656 82.6497238,1.79262295 C82.6233143,2.41008197 82.6009333,3.05763934 82.5834762,3.7357377 C82.566019,4.41427869 82.5530381,5.10122951 82.5440857,5.79659016 C82.5351333,6.49239344 82.5311048,7.13596721 82.5311048,7.72731148 L82.5311048,12.4483279 C82.5311048,13.0396721 82.5351333,13.6832459 82.5440857,14.3786066 C82.5530381,15.0744098 82.566019,15.760918 82.5834762,16.439459 C82.6009333,17.1175574 82.6233143,17.7611311 82.6497238,18.3692951 C82.6761333,18.9783443 82.7065714,19.4829344 82.742381,19.8821803 C82.3368381,19.8472131 81.9415905,19.8303934 81.5548476,19.8303934 C81.1681048,19.8303934 80.7724095,19.8472131 80.3677619,19.8821803 C80.4031238,19.4829344 80.4335619,18.9783443 80.460419,18.3692951 C80.4868286,17.7611311 80.5083143,17.1175574 80.5257714,16.439459 C80.5436762,15.760918 80.5566571,15.0744098 80.5656095,14.3786066 C80.5741143,13.6832459 80.5790381,13.0396721 80.5790381,12.4483279 L80.5790381,7.72731148 C80.5790381,7.13596721 80.5741143,6.49239344 80.5656095,5.79659016" id="Fill-7" sketch:type="MSShapeGroup"></path>
                <path d="M86.8439143,5.79659016 C86.8345143,5.10122951 86.8215333,4.41427869 86.8045238,3.7357377 C86.786619,3.05763934 86.7646857,2.41008197 86.7382762,1.79262295 C86.7118667,1.17560656 86.680981,0.649327869 86.645619,0.214672131 C87.138,0.301868852 87.5336952,0.345245902 87.8331524,0.345245902 C88.1321619,0.345245902 88.5274095,0.301868852 89.0202381,0.214672131 C88.9844286,0.649327869 88.9544381,1.17560656 88.927581,1.79262295 C88.9011714,2.41008197 88.8792381,3.05763934 88.861781,3.7357377 C88.8438762,4.41427869 88.8308952,5.10122951 88.8223905,5.79659016 C88.8129905,6.49239344 88.8089619,7.13596721 88.8089619,7.72731148 L88.8089619,12.4483279 C88.8089619,13.0396721 88.8129905,13.6832459 88.8223905,14.3786066 C88.8308952,15.0744098 88.8438762,15.760918 88.861781,16.439459 C88.8792381,17.1175574 88.9011714,17.7611311 88.927581,18.3692951 C88.9544381,18.9783443 88.9844286,19.4829344 89.0202381,19.8821803 C88.6155905,19.8472131 88.2194476,19.8303934 87.8331524,19.8303934 C87.4459619,19.8303934 87.0502667,19.8472131 86.645619,19.8821803 C86.680981,19.4829344 86.7118667,18.9783443 86.7382762,18.3692951 C86.7646857,17.7611311 86.786619,17.1175574 86.8045238,16.439459 C86.8215333,15.760918 86.8345143,15.0744098 86.8439143,14.3786066 C86.852419,13.6832459 86.8568952,13.0396721 86.8568952,12.4483279 L86.8568952,7.72731148 C86.8568952,7.13596721 86.852419,6.49239344 86.8439143,5.79659016" id="Fill-8" sketch:type="MSShapeGroup"></path>
                <path d="M95.5492095,18.0824754 C95.2412476,17.3353279 94.9113524,16.5483443 94.5599714,15.7219672 C94.2081429,14.8964754 93.8478095,14.0523934 93.4785238,13.1919344 C93.1092381,12.3310328 92.7614381,11.5223607 92.4364667,10.765918 C92.1110476,10.0094754 91.825019,9.34421311 91.5788286,8.77013115 C91.3321905,8.1964918 91.1477714,7.77068852 91.0255714,7.49227869 C91.2534095,7.5272459 91.4642381,7.55734426 91.6580571,7.58345902 C91.8514286,7.60957377 92.0448,7.62285246 92.238619,7.62285246 C92.4319905,7.62285246 92.6249143,7.60957377 92.8182857,7.58345902 C93.0121048,7.55734426 93.223381,7.5272459 93.4516667,7.49227869 C93.9968667,9.16185246 94.6038381,10.8141639 95.2721333,12.4483279 C95.939981,14.0829344 96.6440857,15.7697705 97.3826571,17.5088361 C98.1212286,15.9786885 98.8289143,14.344082 99.5061619,12.6045738 C100.182067,10.8659508 100.78501,9.16185246 101.312752,7.49227869 C101.664133,7.57947541 101.955533,7.62285246 102.183371,7.62285246 C102.412105,7.62285246 102.701714,7.57947541 103.054438,7.49227869 C102.930448,7.73572131 102.733048,8.14868852 102.460448,8.73118033 C102.1874,9.31367213 101.862429,10.0094754 101.484638,10.8177049 C101.105952,11.6268197 100.693248,12.5226885 100.244733,13.5048689 C99.796219,14.4874918 99.3383048,15.4962295 98.872781,16.5306393 C98.4063619,17.5654918 97.9453143,18.5910492 97.4882952,19.6086393 C97.0308286,20.6257869 96.6078286,21.5911475 96.2215333,22.5038361 C95.8347905,23.4169672 95.4963905,24.242459 95.2058857,24.982082 C94.9158286,25.7208197 94.7005238,26.3077377 94.5599714,26.7428361 C94.2081429,26.6556393 93.909581,26.6122623 93.6629429,26.6122623 C93.4163048,26.6122623 93.1177429,26.6556393 92.7659143,26.7428361 C94.1557714,24.4642131 95.3334571,22.1860328 96.3012095,19.9082951 C96.1073905,19.4386721 95.8567238,18.8305082 95.5492095,18.0824754" id="Fill-9" sketch:type="MSShapeGroup"></path>
                <path d="M111.376124,5.3402459 C111.332705,4.23590164 111.283467,3.10986885 111.231543,1.96259016 C111.459829,1.99711475 111.680057,2.02765574 111.890438,2.05332787 C112.102162,2.07944262 112.312543,2.09272131 112.523819,2.09272131 C112.734648,2.09272131 112.945924,2.07944262 113.156752,2.05332787 C113.368476,2.02765574 113.587362,1.99711475 113.81699,1.96259016 C113.763276,3.10986885 113.714933,4.23590164 113.671514,5.3402459 C113.6272,6.44459016 113.605267,7.57018033 113.605267,8.71790164 L113.605267,13.2047705 C113.605267,14.3524918 113.6272,15.4829508 113.671514,16.5957049 C113.714933,17.7089016 113.763276,18.8043934 113.81699,19.8821803 C113.411448,19.8472131 112.98039,19.8303934 112.523819,19.8303934 C112.065905,19.8303934 111.635295,19.8472131 111.231543,19.8821803 C111.283467,18.8043934 111.332705,17.7089016 111.376124,16.5957049 C111.41999,15.4829508 111.441924,14.3524918 111.441924,13.2047705 L111.441924,8.71790164 C111.441924,7.57018033 111.41999,6.44459016 111.376124,5.3402459" id="Fill-10" sketch:type="MSShapeGroup"></path>
                <path d="M124.975238,9.59208197 C124.464505,8.92283607 123.761295,8.58777049 122.864267,8.58777049 C121.633314,8.58777049 120.732257,8.96222951 120.1602,9.70937705 C119.58859,10.4574098 119.30301,11.509082 119.30301,12.8657213 L119.30301,15.0828197 C119.30301,15.865377 119.316886,16.6873279 119.342848,17.5477869 C119.369705,18.4086885 119.426552,19.1872623 119.514733,19.8821803 C119.109638,19.8472131 118.713943,19.8303934 118.3272,19.8303934 C117.94001,19.8303934 117.544762,19.8472131 117.140114,19.8821803 C117.227848,19.1872623 117.28559,18.4086885 117.312448,17.5477869 C117.33841,16.6873279 117.351838,15.865377 117.351838,15.0828197 L117.351838,12.3699836 C117.351838,11.5874262 117.33841,10.765918 117.312448,9.90501639 C117.28559,9.04411475 117.227848,8.23986885 117.140114,7.49227869 C117.632495,7.57947541 118.027743,7.62285246 118.3272,7.62285246 C118.467752,7.62285246 118.622181,7.60957377 118.789143,7.58345902 C118.956105,7.55734426 119.153952,7.5272459 119.382238,7.49227869 C119.330314,8.18763934 119.30301,8.88388525 119.30301,9.5792459 L119.356276,9.5792459 C119.85,8.83165574 120.441305,8.25314754 121.1284,7.84460656 C121.817286,7.43606557 122.637771,7.23113115 123.589857,7.23113115 C124.083581,7.23113115 124.581781,7.30106557 125.084905,7.44004918 C125.587581,7.57947541 126.041914,7.8184918 126.447457,8.15754098 C126.853448,8.49614754 127.184238,8.95736066 127.439829,9.53985246 C127.695419,10.1227869 127.824333,10.8659508 127.824333,11.7702295 C127.824333,12.5182623 127.806429,13.287541 127.771067,14.0789508 C127.735705,14.8703607 127.7178,15.7091311 127.7178,16.5957049 L127.7178,18.2913934 C127.7178,18.5698033 127.722724,18.8433443 127.731229,19.1129016 C127.740181,19.3829016 127.75361,19.6391803 127.771067,19.8821803 C127.41521,19.8472131 127.041895,19.8303934 126.649781,19.8303934 C126.275571,19.8303934 125.910762,19.8472131 125.555352,19.8821803 C125.590267,18.9783443 125.629657,18.0479508 125.673971,17.0914426 C125.71739,16.135377 125.739771,15.1523115 125.739771,14.1440164 L125.739771,12.5527869 C125.739771,11.248377 125.485076,10.2617705 124.975238,9.59208197" id="Fill-11" sketch:type="MSShapeGroup"></path>
                <path d="M130.435295,10.8053115 C130.822038,9.98778689 131.327848,9.31367213 131.952276,8.78340984 C132.576257,8.25314754 133.293343,7.86186885 134.10219,7.60957377 C134.911038,7.35772131 135.737343,7.23113115 136.581552,7.23113115 C137.547962,7.23113115 138.415,7.34842623 139.180429,7.58345902 C139.944962,7.8184918 140.49419,8.08362295 140.828562,8.37929508 C140.705467,8.64 140.595352,8.91354098 140.499114,9.20080328 C140.402429,9.48762295 140.318276,9.78772131 140.248,10.1006557 L140.037619,10.1006557 C139.914076,9.87491803 139.747114,9.64431148 139.535838,9.40972131 C139.32501,9.17468852 139.074343,8.95736066 138.783838,8.75729508 C138.493781,8.55767213 138.172838,8.39213115 137.821457,8.26155738 C137.469629,8.13142623 137.082886,8.06636066 136.660781,8.06636066 C135.86939,8.06636066 135.188114,8.20932787 134.616057,8.49614754 C134.045343,8.78340984 133.578924,9.17911475 133.218143,9.6832623 C132.85781,10.1882951 132.593714,10.7831803 132.426752,11.4701311 C132.25979,12.1575246 132.176086,12.9006885 132.176086,13.7005082 C132.176086,15.4913607 132.563276,16.8435738 133.336762,17.7562623 C134.110695,18.6698361 135.24541,19.1257377 136.739562,19.1257377 C137.091838,19.1257377 137.452171,19.078377 137.821457,18.9827705 C138.190743,18.8871639 138.551076,18.7565902 138.902905,18.5910492 C139.254286,18.4259508 139.584629,18.2303115 139.892143,18.0041311 C140.200105,17.7783934 140.467781,17.5349508 140.696514,17.2738033 L140.828562,17.3521475 C140.740381,17.769541 140.68801,18.1957869 140.670552,18.6304426 C140.14281,19.0478361 139.487495,19.4041475 138.705505,19.6998197 C137.922171,19.9954918 137.109295,20.1433279 136.265533,20.1433279 C135.508162,20.1433279 134.748105,20.0344426 133.983571,19.8171148 C133.218143,19.5997869 132.527467,19.234623 131.912438,18.721623 C131.296962,18.2090656 130.800105,17.5438033 130.422314,16.7262787 C130.043181,15.9087541 129.855181,14.9093115 129.855181,13.726623 C129.855181,12.5961639 130.048105,11.6223934 130.435295,10.8053115" id="Fill-12" sketch:type="MSShapeGroup"></path>
            </g>
        </g>
    </g>
</svg>
