<?xml version="1.0" encoding="utf-8"?>
<!-- Generator: Adobe Illustrator 15.0.0, SVG Export Plug-In . SVG Version: 6.00 Build 0)  -->
<!DOCTYPE svg PUBLIC "-//W3C//DTD SVG 1.1//EN" "http://www.w3.org/Graphics/SVG/1.1/DTD/svg11.dtd">
<svg version="1.1" id="Layer_1" xmlns="http://www.w3.org/2000/svg" xmlns:xlink="http://www.w3.org/1999/xlink" x="0px" y="0px"
	 width="220.89px" height="48.631px" viewBox="0 0 220.89 48.631" enable-background="new 0 0 220.89 48.631" xml:space="preserve">
<g>
	<g>
		<path fill-rule="evenodd" clip-rule="evenodd" fill="#FFFFFF" d="M68.645,38.425c0.13,0.369,0.207,0.662,0.216,0.896
			c0.009,0.224-0.06,0.396-0.19,0.519c-0.138,0.11-0.361,0.188-0.672,0.223c-0.311,0.032-0.725,0.052-1.25,0.052
			c-0.519,0-0.94-0.01-1.25-0.037c-0.311-0.023-0.542-0.066-0.707-0.127c-0.163-0.062-0.276-0.139-0.354-0.242
			c-0.077-0.104-0.146-0.225-0.216-0.381L54.57,11.601h-0.027l-5.629,16.301c0.783,0,9.431,0,9.431,0
			c0.476,0,0.707,0.387,0.512,0.862l-0.713,1.753c-0.193,0.479-0.737,0.864-1.213,0.864l-9.105-0.011l-2.683,7.854
			c-0.052,0.157-0.114,0.285-0.199,0.397c-0.085,0.111-0.206,0.197-0.371,0.275c-0.154,0.078-0.387,0.131-0.682,0.165
			c-0.292,0.032-0.671,0.052-1.146,0.052c-0.492,0-0.889-0.02-1.199-0.061c-0.311-0.043-0.535-0.121-0.656-0.242
			c-0.129-0.119-0.19-0.295-0.181-0.519c0.008-0.231,0.077-0.525,0.216-0.896l10.96-30.381c0.069-0.191,0.164-0.347,0.268-0.458
			c0.111-0.121,0.266-0.215,0.482-0.275c0.206-0.07,0.474-0.122,0.812-0.146C53.777,7.109,54.191,7.1,54.7,7.1
			c0.534,0,0.984,0.009,1.337,0.037c0.354,0.023,0.637,0.076,0.853,0.146c0.226,0.06,0.387,0.162,0.508,0.282
			c0.122,0.133,0.218,0.287,0.277,0.468L68.645,38.425z"/>
		<path fill-rule="evenodd" clip-rule="evenodd" fill="#FFFFFF" d="M158.34,17.069c0-1.334-0.252-2.446-0.742-3.345
			c-0.498-0.888-1.113-1.561-1.855-2c-0.73-0.433-1.492-0.716-2.266-0.828c-0.785-0.123-1.553-0.181-2.297-0.181h-4.016v13.142
			h3.924c1.311,0,2.404-0.171,3.268-0.51c0.869-0.334,1.596-0.801,2.191-1.404c0.588-0.593,1.033-1.312,1.338-2.149
			C158.188,18.958,158.34,18.054,158.34,17.069 M147.158,39.087c0,0.813-0.555,1.23-1.236,0.928l-1.885-0.846
			c-0.676-0.307-1.232-1.218-1.232-2.029l0.01-28.126c0-0.67,0.182-1.154,0.535-1.437c0.355-0.288,0.742-0.432,1.182-0.432h6.994
			c0.707,0,1.391,0.024,2.037,0.087c0.645,0.057,1.414,0.189,2.291,0.378c0.887,0.196,1.785,0.56,2.711,1.085
			c0.912,0.533,1.689,1.191,2.336,1.967c0.641,0.777,1.131,1.672,1.475,2.692c0.344,1.017,0.518,2.145,0.518,3.371
			c0,1.638-0.266,3.114-0.811,4.433c-0.533,1.312-1.301,2.433-2.312,3.362c-1,0.924-2.221,1.641-3.68,2.147
			c-1.455,0.51-3.191,0.762-5.219,0.762h-3.707L147.158,39.087z"/>
		<path fill="#FFFFFF" d="M220.889,30.755c0,1.48-0.273,2.804-0.818,3.965c-0.553,1.156-1.314,2.146-2.287,2.959
			c-0.971,0.801-2.115,1.412-3.432,1.821c-1.322,0.412-2.734,0.614-4.264,0.614c-1.062,0-2.049-0.094-2.953-0.269
			c-0.912-0.185-1.725-0.414-2.434-0.671c-0.711-0.26-1.309-0.534-1.793-0.812c-0.477-0.283-0.822-0.518-1.002-0.721
			c-0.195-0.191-0.328-0.443-0.418-0.745c-0.092-0.3-0.137-0.7-0.137-1.204c0-0.358,0.014-0.662,0.051-0.895
			c0.029-0.234,0.086-0.43,0.145-0.57c0.064-0.15,0.148-0.252,0.25-0.31c0.1-0.061,0.209-0.081,0.34-0.081
			c0.229,0,0.555,0.139,0.975,0.416c0.41,0.277,0.941,0.578,1.604,0.904c0.652,0.318,1.443,0.627,2.371,0.913
			c0.92,0.284,1.99,0.424,3.195,0.424c0.92,0,1.76-0.123,2.521-0.366c0.76-0.242,1.416-0.586,1.961-1.037
			c0.553-0.441,0.969-0.997,1.264-1.65c0.293-0.654,0.445-1.398,0.445-2.225c0-0.898-0.205-1.666-0.613-2.303
			c-0.412-0.637-0.945-1.197-1.613-1.684c-0.684-0.477-1.443-0.922-2.299-1.322c-0.861-0.401-1.738-0.805-2.635-1.221
			c-0.896-0.418-1.773-0.878-2.621-1.39c-0.855-0.503-1.617-1.096-2.285-1.784c-0.668-0.685-1.215-1.489-1.623-2.418
			c-0.418-0.922-0.627-2.026-0.627-3.316c0-1.331,0.24-2.51,0.719-3.549c0.488-1.029,1.156-1.898,2.012-2.604
			c0.861-0.702,1.881-1.238,3.059-1.605c1.191-0.372,2.465-0.553,3.836-0.553c0.703,0,1.408,0.058,2.117,0.181
			c0.713,0.128,1.383,0.287,2.014,0.496c0.625,0.201,1.184,0.437,1.678,0.687c0.486,0.252,0.812,0.46,0.965,0.611
			c0.156,0.158,0.258,0.274,0.309,0.366c0.051,0.093,0.082,0.211,0.115,0.344c0.035,0.145,0.059,0.311,0.078,0.511
			c0.014,0.194,0.021,0.444,0.021,0.761c0,0.295-0.008,0.552-0.033,0.79c-0.023,0.222-0.066,0.417-0.115,0.576
			c-0.045,0.15-0.117,0.266-0.201,0.345c-0.092,0.072-0.193,0.105-0.309,0.105c-0.186,0-0.461-0.116-0.848-0.343
			c-0.383-0.233-0.852-0.485-1.414-0.775c-0.549-0.287-1.211-0.546-1.975-0.782c-0.752-0.241-1.605-0.358-2.561-0.358
			c-0.881,0-1.65,0.118-2.303,0.351c-0.656,0.243-1.193,0.553-1.625,0.947c-0.418,0.392-0.734,0.855-0.953,1.388
			c-0.211,0.545-0.318,1.113-0.318,1.716c0,0.882,0.199,1.643,0.611,2.275c0.41,0.64,0.953,1.201,1.629,1.694
			c0.689,0.494,1.459,0.936,2.33,1.346c0.861,0.41,1.752,0.821,2.654,1.241c0.896,0.417,1.781,0.87,2.645,1.373
			c0.869,0.494,1.641,1.084,2.326,1.766c0.676,0.676,1.225,1.474,1.643,2.4C220.68,28.403,220.889,29.492,220.889,30.755"/>
		<path fill="#FFFFFF" d="M201.525,30.755c0,1.48-0.273,2.804-0.818,3.965c-0.551,1.156-1.314,2.146-2.283,2.959
			c-0.975,0.801-2.119,1.412-3.434,1.821c-1.322,0.412-2.738,0.614-4.26,0.614c-1.062,0-2.053-0.094-2.955-0.269
			c-0.91-0.185-1.723-0.414-2.439-0.671c-0.711-0.26-1.303-0.534-1.789-0.812c-0.475-0.283-0.818-0.518-1.004-0.721
			c-0.195-0.191-0.326-0.443-0.42-0.745c-0.09-0.3-0.137-0.7-0.137-1.204c0-0.358,0.023-0.662,0.053-0.895
			c0.035-0.234,0.084-0.43,0.143-0.57c0.068-0.15,0.152-0.252,0.252-0.31c0.1-0.061,0.209-0.081,0.344-0.081
			c0.225,0,0.553,0.139,0.971,0.416c0.408,0.277,0.947,0.578,1.607,0.904c0.654,0.318,1.438,0.627,2.369,0.913
			c0.922,0.284,1.992,0.424,3.197,0.424c0.922,0,1.758-0.123,2.521-0.366c0.762-0.242,1.41-0.586,1.957-1.037
			c0.551-0.441,0.969-0.997,1.264-1.65c0.293-0.654,0.441-1.398,0.441-2.225c0-0.898-0.199-1.666-0.607-2.303
			c-0.41-0.637-0.947-1.197-1.617-1.684c-0.676-0.477-1.438-0.922-2.291-1.322c-0.863-0.401-1.744-0.805-2.639-1.221
			c-0.896-0.418-1.777-0.878-2.619-1.39c-0.855-0.503-1.617-1.096-2.285-1.784c-0.672-0.685-1.213-1.489-1.623-2.418
			c-0.422-0.922-0.631-2.026-0.631-3.316c0-1.331,0.244-2.51,0.719-3.549c0.486-1.029,1.156-1.898,2.012-2.604
			c0.861-0.702,1.881-1.238,3.066-1.605c1.184-0.372,2.457-0.553,3.83-0.553c0.701,0,1.406,0.058,2.117,0.181
			c0.711,0.128,1.381,0.287,2.01,0.496c0.627,0.201,1.188,0.437,1.682,0.687c0.486,0.252,0.812,0.46,0.965,0.611
			c0.158,0.158,0.256,0.274,0.307,0.366c0.051,0.093,0.086,0.211,0.119,0.344c0.031,0.145,0.057,0.311,0.074,0.511
			c0.016,0.194,0.029,0.444,0.029,0.761c0,0.295-0.014,0.552-0.037,0.79c-0.025,0.222-0.066,0.417-0.115,0.576
			c-0.041,0.15-0.121,0.266-0.201,0.345c-0.094,0.072-0.193,0.105-0.312,0.105c-0.184,0-0.461-0.116-0.844-0.343
			c-0.387-0.233-0.854-0.485-1.414-0.775c-0.553-0.287-1.213-0.546-1.975-0.782c-0.754-0.241-1.609-0.358-2.564-0.358
			c-0.877,0-1.645,0.118-2.301,0.351c-0.652,0.243-1.197,0.553-1.623,0.947c-0.42,0.392-0.738,0.855-0.955,1.388
			c-0.209,0.545-0.316,1.113-0.316,1.716c0,0.882,0.197,1.643,0.611,2.275c0.41,0.64,0.951,1.201,1.631,1.694
			c0.684,0.494,1.459,0.936,2.328,1.346c0.861,0.41,1.746,0.821,2.652,1.241c0.896,0.417,1.785,0.87,2.643,1.373
			c0.875,0.494,1.643,1.084,2.328,1.766c0.682,0.676,1.225,1.474,1.643,2.4C201.316,28.403,201.525,29.492,201.525,30.755z"/>
		<path fill="#FFFFFF" d="M139.299,27.925c0,1.926-0.289,3.648-0.85,5.164c-0.559,1.509-1.371,2.787-2.416,3.834
			s-2.318,1.842-3.824,2.379c-1.5,0.544-3.205,0.812-5.123,0.812c-1.75,0-3.34-0.252-4.781-0.763
			c-1.439-0.502-2.668-1.257-3.701-2.245c-1.025-0.986-1.822-2.225-2.377-3.716c-0.559-1.481-0.835-3.196-0.835-5.149V8.554
			c0-0.131,0.031-0.252,0.103-0.341c0.064-0.102,0.174-0.176,0.338-0.234c0.172-0.058,0.381-0.109,0.646-0.151
			c0.261-0.044,0.604-0.059,1.042-0.059c0.389,0,0.727,0.015,1.004,0.059c0.283,0.042,0.502,0.093,0.65,0.151
			c0.162,0.058,0.27,0.132,0.336,0.234c0.068,0.089,0.1,0.21,0.1,0.341v19.17c0,1.467,0.178,2.756,0.539,3.842
			c0.357,1.097,0.877,2.009,1.553,2.738c0.674,0.727,1.492,1.271,2.447,1.64c0.943,0.37,2.018,0.551,3.213,0.551
			c1.211,0,2.303-0.173,3.258-0.532c0.955-0.361,1.756-0.904,2.416-1.623c0.66-0.723,1.164-1.607,1.516-2.674
			c0.352-1.061,0.529-2.303,0.529-3.725V8.554c0-0.131,0.031-0.252,0.102-0.341c0.066-0.102,0.172-0.176,0.344-0.234
			c0.166-0.058,0.383-0.109,0.648-0.151c0.279-0.044,0.615-0.059,1.033-0.059c0.395,0,0.719,0.015,0.992,0.059
			c0.271,0.042,0.488,0.093,0.639,0.151c0.158,0.058,0.275,0.132,0.352,0.234c0.072,0.089,0.109,0.21,0.109,0.341V27.925z"/>
		<path fill="#FFFFFF" d="M113.567,35.242c0,0.258-0.007,0.484-0.026,0.685c-0.015,0.193-0.043,0.36-0.082,0.511
			c-0.041,0.144-0.092,0.277-0.162,0.396c-0.065,0.108-0.182,0.251-0.34,0.409c-0.168,0.168-0.51,0.419-1.031,0.754
			c-0.524,0.334-1.179,0.66-1.956,0.977c-0.781,0.32-1.667,0.589-2.673,0.806c-1.011,0.226-2.11,0.337-3.306,0.337
			c-2.058,0-3.927-0.346-5.583-1.031c-1.659-0.687-3.081-1.698-4.246-3.047c-1.171-1.339-2.075-2.996-2.701-4.967
			c-0.629-1.974-0.947-4.242-0.947-6.811c0-2.638,0.343-4.982,1.019-7.049c0.681-2.057,1.635-3.808,2.867-5.238
			c1.228-1.432,2.694-2.521,4.41-3.276c1.709-0.752,3.606-1.127,5.683-1.127c0.923,0,1.815,0.082,2.678,0.251
			c0.873,0.173,1.674,0.383,2.412,0.645c0.74,0.26,1.388,0.559,1.969,0.902c0.567,0.335,0.969,0.624,1.187,0.839
			c0.229,0.217,0.372,0.383,0.435,0.501c0.068,0.108,0.117,0.243,0.16,0.402c0.043,0.158,0.079,0.342,0.102,0.554
			c0.025,0.217,0.033,0.467,0.033,0.761c0,0.332-0.018,0.611-0.049,0.835c-0.036,0.236-0.086,0.43-0.152,0.588
			c-0.059,0.151-0.141,0.267-0.235,0.342c-0.083,0.075-0.202,0.109-0.324,0.109c-0.235,0-0.554-0.159-0.971-0.479
			c-0.415-0.317-0.94-0.669-1.592-1.053c-0.655-0.384-1.439-0.736-2.369-1.054c-0.938-0.321-2.051-0.48-3.348-0.48
			c-1.422,0-2.714,0.287-3.866,0.848c-1.163,0.568-2.161,1.398-2.979,2.493c-0.822,1.098-1.466,2.436-1.918,4.017
			c-0.452,1.583-0.678,3.393-0.678,5.418c0,2.017,0.219,3.8,0.653,5.348c0.435,1.55,1.063,2.847,1.875,3.884
			c0.812,1.04,1.815,1.824,2.996,2.361c1.189,0.527,2.529,0.796,4.027,0.796c1.263,0,2.376-0.161,3.323-0.471
			c0.948-0.31,1.749-0.653,2.413-1.038c0.669-0.385,1.215-0.729,1.64-1.037c0.438-0.309,0.769-0.468,1.012-0.468
			c0.116,0,0.216,0.024,0.303,0.073c0.085,0.051,0.143,0.143,0.193,0.278c0.049,0.142,0.092,0.333,0.116,0.577
			C113.561,34.556,113.567,34.865,113.567,35.242z"/>
		<path fill="#FFFFFF" d="M90.499,35.242c0,0.258-0.008,0.484-0.027,0.685c-0.017,0.193-0.042,0.36-0.082,0.511
			c-0.042,0.144-0.094,0.277-0.16,0.396c-0.068,0.108-0.184,0.251-0.342,0.409c-0.169,0.168-0.511,0.419-1.031,0.754
			c-0.528,0.334-1.181,0.66-1.961,0.977c-0.778,0.32-1.665,0.589-2.668,0.806c-1.012,0.226-2.111,0.337-3.305,0.337
			c-2.061,0-3.928-0.346-5.585-1.031c-1.658-0.687-3.081-1.698-4.243-3.047c-1.172-1.339-2.076-2.996-2.706-4.967
			c-0.626-1.974-0.945-4.242-0.945-6.811c0-2.638,0.343-4.982,1.021-7.049c0.679-2.057,1.632-3.808,2.861-5.238
			c1.231-1.432,2.697-2.521,4.413-3.276c1.708-0.752,3.608-1.127,5.684-1.127c0.923,0,1.814,0.082,2.678,0.251
			c0.873,0.173,1.674,0.383,2.412,0.645c0.738,0.26,1.389,0.559,1.966,0.902c0.57,0.335,0.971,0.624,1.189,0.839
			c0.226,0.217,0.37,0.383,0.436,0.501c0.066,0.108,0.117,0.243,0.159,0.402c0.042,0.158,0.077,0.342,0.099,0.554
			c0.028,0.217,0.034,0.467,0.034,0.761c0,0.332-0.017,0.611-0.048,0.835c-0.037,0.236-0.085,0.43-0.152,0.588
			c-0.058,0.151-0.144,0.267-0.237,0.342c-0.082,0.075-0.2,0.109-0.324,0.109c-0.238,0-0.553-0.159-0.971-0.479
			c-0.41-0.317-0.938-0.669-1.591-1.053c-0.654-0.384-1.439-0.736-2.372-1.054c-0.933-0.321-2.047-0.48-3.347-0.48
			c-1.422,0-2.711,0.287-3.865,0.848c-1.164,0.568-2.161,1.398-2.981,2.493c-0.82,1.098-1.464,2.436-1.917,4.017
			c-0.451,1.583-0.676,3.393-0.676,5.418c0,2.017,0.217,3.8,0.652,5.348c0.435,1.55,1.062,2.847,1.875,3.884
			c0.812,1.04,1.816,1.824,2.997,2.361c1.189,0.527,2.528,0.796,4.024,0.796c1.265,0,2.38-0.161,3.326-0.471
			c0.947-0.31,1.749-0.653,2.413-1.038c0.667-0.385,1.212-0.729,1.639-1.037c0.435-0.309,0.769-0.468,1.012-0.468
			c0.118,0,0.217,0.024,0.302,0.073c0.084,0.051,0.142,0.143,0.194,0.278c0.048,0.142,0.092,0.333,0.115,0.577
			C90.491,34.556,90.499,34.865,90.499,35.242z"/>
		<path fill-rule="evenodd" clip-rule="evenodd" fill="#FFFFFF" d="M186.043,38.425c0.129,0.369,0.209,0.662,0.213,0.896
			c0.012,0.224-0.057,0.396-0.188,0.519c-0.137,0.11-0.361,0.188-0.674,0.223c-0.311,0.032-0.723,0.052-1.248,0.052
			c-0.52,0-0.939-0.01-1.254-0.037c-0.309-0.023-0.539-0.066-0.707-0.127c-0.16-0.062-0.273-0.139-0.352-0.242
			c-0.076-0.104-0.146-0.225-0.217-0.381l-9.646-27.727h-0.029l-5.631,16.301c0.783,0,9.432,0,9.432,0
			c0.475,0,0.709,0.387,0.512,0.862l-0.711,1.753c-0.191,0.479-0.74,0.864-1.217,0.864l-9.102-0.011l-2.684,7.854
			c-0.051,0.157-0.113,0.285-0.197,0.397c-0.088,0.111-0.209,0.197-0.371,0.275c-0.154,0.078-0.391,0.131-0.68,0.165
			c-0.295,0.032-0.674,0.052-1.148,0.052c-0.49,0-0.889-0.02-1.199-0.061c-0.312-0.043-0.537-0.121-0.656-0.242
			c-0.129-0.119-0.189-0.295-0.182-0.519c0.012-0.231,0.078-0.525,0.217-0.896l10.961-30.381c0.07-0.191,0.164-0.347,0.27-0.458
			c0.111-0.121,0.266-0.215,0.482-0.275c0.205-0.07,0.475-0.122,0.811-0.146c0.324-0.028,0.738-0.037,1.252-0.037
			c0.531,0,0.98,0.009,1.336,0.037c0.352,0.023,0.637,0.076,0.852,0.146c0.225,0.06,0.391,0.162,0.508,0.282
			c0.123,0.133,0.217,0.287,0.277,0.468L186.043,38.425z"/>
	</g>
	<path fill="#FFFFFF" d="M27.773,0.015L1.689,2.754C0.728,2.855,0,3.666,0,4.631v0.367v33.458v0.369
		c0,0.745,0.439,1.419,1.121,1.724l17.828,7.921c0.247,0.106,0.506,0.162,0.766,0.162c0.361,0,0.719-0.104,1.03-0.305
		c0.535-0.348,0.859-0.944,0.859-1.582v-8.463l6.227-0.655c1.488-0.186,2.688-1.525,2.688-3.022V2.469
		C30.518,0.955,29.289-0.145,27.773,0.015z M26.744,32.838c-0.024,0.636-0.503,1.146-1.123,1.226l-4.019,0.423V12.92
		c0-0.747-0.439-1.422-1.121-1.725L8.43,5.841L25.471,4.05c0.704,0.012,1.273,0.583,1.273,1.292V32.838z"/>
</g>
</svg>
