<?xml version="1.0" encoding="UTF-8" standalone="no"?>
<svg width="23px" height="23px" viewBox="0 0 23 23" version="1.1" xmlns="http://www.w3.org/2000/svg" xmlns:xlink="http://www.w3.org/1999/xlink" xmlns:sketch="http://www.bohemiancoding.com/sketch/ns">
    <!-- Generator: Sketch 3.3.2 (12043) - http://www.bohemiancoding.com/sketch -->
    <title>Imported Layers</title>
    <desc>Created with Sketch.</desc>
    <defs></defs>
    <g id="Welcome" stroke="none" stroke-width="1" fill="none" fill-rule="evenodd" sketch:type="MSPage">
        <g id="Web-Landing-Page-" sketch:type="MSArtboardGroup" transform="translate(-360.000000, -19.000000)" fill="#FFFFFF">
            <g id="Header" sketch:type="MSLayerGroup" transform="translate(336.000000, 0.000000)">
                <path d="M36.3823846,30.0771538 L45.8836154,20.5759231 C46.2445385,20.2159231 46.2445385,19.6306923 45.8836154,19.2706923 C45.5236154,18.9097692 44.9383846,18.9097692 44.5783846,19.2706923 L35.0771538,28.7719231 L25.5759231,19.2706923 C25.2159231,18.9097692 24.6306923,18.9097692 24.2706923,19.2706923 C23.9097692,19.6306923 23.9097692,20.2159231 24.2706923,20.5759231 L33.7719231,30.0771538 L24.2706923,39.5783846 C23.9097692,39.9383846 23.9097692,40.5236154 24.2706923,40.8836154 C24.6306923,41.2445385 25.2159231,41.2445385 25.5759231,40.8836154 L35.0771538,31.3823846 L44.5783846,40.8836154 C44.9383846,41.2445385 45.5236154,41.2445385 45.8836154,40.8836154 C46.2445385,40.5236154 46.2445385,39.9383846 45.8836154,39.5783846 L36.3823846,30.0771538" id="Imported-Layers" sketch:type="MSShapeGroup"></path>
            </g>
        </g>
    </g>
</svg>
