<?xml version="1.0" encoding="UTF-8" standalone="no"?>
<svg width="161px" height="169px" viewBox="0 0 161 169" version="1.1" xmlns="http://www.w3.org/2000/svg" xmlns:xlink="http://www.w3.org/1999/xlink" xmlns:sketch="http://www.bohemiancoding.com/sketch/ns">
    <!-- Generator: Sketch 3.3.2 (12043) - http://www.bohemiancoding.com/sketch -->
    <title>features_graphic1 copy</title>
    <desc>Created with Sketch.</desc>
    <defs></defs>
    <g id="Page-1" stroke="none" stroke-width="1" fill="none" fill-rule="evenodd" sketch:type="MSPage">
        <g id="web" sketch:type="MSArtboardGroup" transform="translate(-162.000000, -1414.000000)">
            <g id="feature" sketch:type="MSLayerGroup" transform="translate(0.000000, 1198.000000)">
                <g id="1" transform="translate(162.000000, 216.000000)" sketch:type="MSShapeGroup">
                    <g id="features_graphic1-copy">
                        <path d="M63.6125217,56.6386154 C52.7561739,39.1669555 46.523087,30.5792186 46.523087,30.5792186 L52.4595978,21.4712146 C52.4595978,21.4712146 24.2926304,14.3888138 20.5219565,14.3699555 C20.5025543,18.2597571 29.6592717,52.4282227 29.1404022,55.9624899 L37.5520761,44.6003644 C37.5520761,44.6003644 43.3666304,49.1524251 55.1625978,65.7543846 C67.0422717,82.4750405 77.8431848,103.205304 77.9745652,103.705049 C78.0288913,103.914709 83.13,97.0480688 83.13,97.0480688 C83.13,97.0480688 79.5816196,82.3385951 63.6125217,56.6386154" id="Fill-1" fill="#FFE76C"></path>
                        <path d="M89.4345978,97.0136802 L95.7175761,104.778862 C95.7175761,104.778862 101.261054,90.1725547 114.35863,76.6067814 C128.18462,62.2872308 134.706522,57.4478583 134.706522,57.4478583 L138.402359,66.5076073 L152.63025,33.4129555 L116.413043,36.7408907 L123.804163,42.4721498 C123.804163,42.4721498 111.018685,55.3961862 102.59537,69.7889514 C95.4952826,81.91983 89.4345978,97.0136802 89.4345978,97.0136802" id="Fill-2" fill="#FFFEE5"></path>
                        <path d="M78.1630435,113.653356 C78.1630435,113.653356 64.2173152,108.476198 50.8154022,106.072874 C40.3692717,104.199247 35.3407826,104.703429 35.3407826,104.703429 L35.6783804,113.917927 L0.191804348,100.729874 L39.395837,85.8512308 L36.9567065,92.3911781 C36.9567065,92.3911781 43.9780761,93.1310891 54.695837,96.8284251 C65.8714891,100.684393 74.2826087,108.846154 74.2826087,108.846154 L78.1630435,113.653356" id="Fill-3" fill="#FFFEE5"></path>
                        <path d="M81.6837065,112.808061 C81.6837065,112.808061 82.0163152,110.459093 83.8384565,108.237142 C85.7797826,105.868761 87.80925,105.505462 87.80925,105.505462 L92.7096848,104.703429 L98.2864239,106.689652 C98.2864239,106.689652 91.1891087,105.506571 87.0065543,108.042457 C84.8085652,109.375296 83.3855543,112.162441 83.3855543,112.162441 L81.6837065,112.808061" id="Fill-4" fill="#F2D24C"></path>
                        <path d="M93.6393261,114.763223 L82.3173261,116.622984 L106.312826,134.545024 L117.043337,108.993692 L107.66488,112.395951 C107.66488,112.395951 105.890413,105.379555 98.9200435,103.773271 C95.129413,104.075004 87.1246304,105.613065 87.1246304,105.613065 C87.1246304,105.613065 91.2733696,104.492105 92.8787609,108.887753 C94.1665109,112.414255 93.6393261,114.763223 93.6393261,114.763223" id="Fill-5" fill="#FFFEE5"></path>
                        <g id="Imported-Layers" transform="translate(95.293478, 0.109312)">
                            <path d="M12.0762949,10.5963543 C12.0762949,13.8818748 9.42727609,16.5455195 6.15979601,16.5455195 C2.89231594,16.5455195 0.243297101,13.8818748 0.243297101,10.5963543 C0.243297101,7.3108337 2.89231594,4.64718903 6.15979601,4.64718903 C9.42727609,4.64718903 12.0762949,7.3108337 12.0762949,10.5963543" id="Fill-1" fill="#FFFEE5"></path>
                            <path d="M9.19371087,20.2063184 C9.19371087,18.4649681 7.81129674,17.6390621 6.08972645,17.6136195 C4.29370725,17.5876876 2.82224638,19.0574871 2.82224638,20.8639118 L2.82224638,28.785368 C2.82224638,29.5510924 3.43973442,30.172479 4.20174094,30.172479 L7.8147029,30.172479 C8.57622283,30.172479 9.19371087,29.5510924 9.19371087,28.785368 L9.19371087,20.2063184" id="Fill-2" fill="#FFFEE5"></path>
                            <path d="M43.3068841,10.5963543 C43.3068841,13.8818748 40.6578652,16.5455195 37.3903851,16.5455195 C34.1229051,16.5455195 31.4738862,13.8818748 31.4738862,10.5963543 C31.4738862,7.3108337 34.1229051,4.64718903 37.3903851,4.64718903 C40.6578652,4.64718903 43.3068841,7.3108337 43.3068841,10.5963543" id="Fill-3" fill="#FFFEE5"></path>
                            <path d="M40.4243,20.2063184 C40.4243,18.4649681 39.0423725,17.6390621 37.3203156,17.6136195 C35.5242964,17.5876876 34.0528355,19.0574871 34.0528355,20.8639118 L34.0528355,28.785368 C34.0528355,29.5510924 34.6708101,30.172479 35.4323301,30.172479 L39.045292,30.172479 C39.806812,30.172479 40.4243,29.5510924 40.4243,28.785368 L40.4243,20.2063184" id="Fill-4" fill="#FFFEE5"></path>
                            <path d="M28.6555326,7.40673273 C28.6555326,11.2275265 25.5749047,14.3251632 21.7750906,14.3251632 C17.9752764,14.3251632 14.8946486,11.2275265 14.8946486,7.40673273 C14.8946486,3.58593897 17.9752764,0.488302237 21.7750906,0.488302237 C25.5749047,0.488302237 28.6555326,3.58593897 28.6555326,7.40673273" id="Fill-5" fill="#FFE76C"></path>
                            <path d="M25.3033851,18.5828847 C25.3033851,16.4843594 23.5779221,15.5292833 21.4758351,15.5679365 C19.4876112,15.6046325 17.8940152,17.2412768 17.8940152,19.2409674 L17.8940152,28.785368 C17.8940152,29.5510924 18.5115033,30.172479 19.2730232,30.172479 L23.9243772,30.172479 C24.6858971,30.172479 25.3033851,29.5510924 25.3033851,28.785368 L25.3033851,18.5828847" id="Fill-6" fill="#FFE76C"></path>
                        </g>
                        <g id="Imported-Layers-Copy" transform="translate(109.978261, 133.000000)">
                            <path d="M14.2060513,12.5750323 C14.2060513,16.4740645 11.0898557,19.6350968 7.24612796,19.6350968 C3.40240024,19.6350968 0.286204596,16.4740645 0.286204596,12.5750323 C0.286204596,8.676 3.40240024,5.51496774 7.24612796,5.51496774 C11.0898557,5.51496774 14.2060513,8.676 14.2060513,12.5750323" id="Fill-1" fill="#FFFEE5"></path>
                            <path d="M10.8150993,23.9794839 C10.8150993,21.9129677 9.18888476,20.9328387 7.16370104,20.9026452 C5.05093871,20.871871 3.31997331,22.616129 3.31997331,24.759871 L3.31997331,34.1605161 C3.31997331,35.0692258 4.04636058,35.8066452 4.94275337,35.8066452 L9.19289162,35.8066452 C10.088712,35.8066452 10.8150993,35.0692258 10.8150993,34.1605161 L10.8150993,23.9794839" id="Fill-2" fill="#FFFEE5"></path>
                            <path d="M50.9444181,12.5750323 C50.9444181,16.4740645 47.8282224,19.6350968 43.9844947,19.6350968 C40.140767,19.6350968 37.0245713,16.4740645 37.0245713,12.5750323 C37.0245713,8.676 40.140767,5.51496774 43.9844947,5.51496774 C47.8282224,5.51496774 50.9444181,8.676 50.9444181,12.5750323" id="Fill-3" fill="#FFFEE5"></path>
                            <path d="M47.553466,23.9794839 C47.553466,21.9129677 45.9278239,20.9328387 43.9020678,20.9026452 C41.7893055,20.871871 40.0583401,22.616129 40.0583401,24.759871 L40.0583401,34.1605161 C40.0583401,35.0692258 40.7852997,35.8066452 41.6811201,35.8066452 L45.9312584,35.8066452 C46.8270788,35.8066452 47.553466,35.0692258 47.553466,34.1605161 L47.553466,23.9794839" id="Fill-4" fill="#FFFEE5"></path>
                            <path d="M33.7091773,8.78980645 C33.7091773,13.3240645 30.0852547,17.000129 25.6153113,17.000129 C21.145368,17.000129 17.5214454,13.3240645 17.5214454,8.78980645 C17.5214454,4.25554839 21.145368,0.579483871 25.6153113,0.579483871 C30.0852547,0.579483871 33.7091773,4.25554839 33.7091773,8.78980645" id="Fill-5" fill="#FFE76C"></path>
                            <path d="M29.7658504,22.0529032 C29.7658504,19.5625161 27.7360874,18.4290968 25.2632797,18.4749677 C22.9244157,18.5185161 21.0497756,20.4607742 21.0497756,22.833871 L21.0497756,34.1605161 C21.0497756,35.0692258 21.7761629,35.8066452 22.6719833,35.8066452 L28.1436427,35.8066452 C29.0394631,35.8066452 29.7658504,35.0692258 29.7658504,34.1605161 L29.7658504,22.0529032" id="Fill-6" fill="#FFE76C"></path>
                        </g>
                        <g id="Imported-Layers-Copy-2" transform="translate(1.641304, 122.384615)">
                            <path d="M12.3878535,10.8981492 C12.3878535,14.2772447 9.67049212,17.0167526 6.31871373,17.0167526 C2.96693534,17.0167526 0.249573968,14.2772447 0.249573968,10.8981492 C0.249573968,7.51905364 2.96693534,4.77954568 6.31871373,4.77954568 C9.67049212,4.77954568 12.3878535,7.51905364 12.3878535,10.8981492" id="Fill-1" fill="#FFFEE5"></path>
                            <path d="M9.43090111,20.7818148 C9.43090111,18.9908691 8.01282183,18.1414404 6.24683643,18.1152732 C4.40448139,18.0886027 2.89505803,19.6002636 2.89505803,21.4581372 L2.89505803,29.6052044 C2.89505803,30.3927374 3.52847676,31.0318218 4.31014243,31.0318218 L8.01631586,31.0318218 C8.79748238,31.0318218 9.43090111,30.3927374 9.43090111,29.6052044 L9.43090111,20.7818148" id="Fill-2" fill="#FFFEE5"></path>
                            <path d="M44.4241664,10.8981492 C44.4241664,14.2772447 41.706805,17.0167526 38.3550266,17.0167526 C35.0032482,17.0167526 32.2858868,14.2772447 32.2858868,10.8981492 C32.2858868,7.51905364 35.0032482,4.77954568 38.3550266,4.77954568 C41.706805,4.77954568 44.4241664,7.51905364 44.4241664,10.8981492" id="Fill-3" fill="#FFFEE5"></path>
                            <path d="M41.467214,20.7818148 C41.467214,18.9908691 40.0496338,18.1414404 38.2831493,18.1152732 C36.4407943,18.0886027 34.9313709,19.6002636 34.9313709,21.4581372 L34.9313709,29.6052044 C34.9313709,30.3927374 35.5652888,31.0318218 36.3464553,31.0318218 L40.0526287,31.0318218 C40.8337953,31.0318218 41.467214,30.3927374 41.467214,29.6052044 L41.467214,20.7818148" id="Fill-4" fill="#FFFEE5"></path>
                            <path d="M29.394822,7.61768398 C29.394822,11.5472978 26.2347164,14.7331584 22.3368702,14.7331584 C18.4390239,14.7331584 15.2789183,11.5472978 15.2789183,7.61768398 C15.2789183,3.68807015 18.4390239,0.502209579 22.3368702,0.502209579 C26.2347164,0.502209579 29.394822,3.68807015 29.394822,7.61768398" id="Fill-5" fill="#FFE76C"></path>
                            <path d="M25.9561919,19.1121441 C25.9561919,16.9538506 24.1862133,15.971573 22.0298942,16.0113271 C19.9903757,16.0490683 18.3556662,17.7323258 18.3556662,19.7889697 L18.3556662,29.6052044 C18.3556662,30.3927374 18.989085,31.0318218 19.7702515,31.0318218 L24.5416066,31.0318218 C25.3227731,31.0318218 25.9561919,30.3927374 25.9561919,29.6052044 L25.9561919,19.1121441" id="Fill-6" fill="#FFE76C"></path>
                        </g>
                    </g>
                </g>
            </g>
        </g>
    </g>
</svg>