<?xml version="1.0" encoding="UTF-8" standalone="no"?>
<svg width="165px" height="157px" viewBox="0 0 165 157" version="1.1" xmlns="http://www.w3.org/2000/svg" xmlns:xlink="http://www.w3.org/1999/xlink" xmlns:sketch="http://www.bohemiancoding.com/sketch/ns">
    <!-- Generator: Sketch 3.3.2 (12043) - http://www.bohemiancoding.com/sketch -->
    <title>Imported Layers Copy 5 + Imported Layers</title>
    <desc>Created with Sketch.</desc>
    <defs></defs>
    <g id="Page-1" stroke="none" stroke-width="1" fill="none" fill-rule="evenodd" sketch:type="MSPage">
        <g id="web" sketch:type="MSArtboardGroup" transform="translate(-1084.000000, -1420.000000)">
            <g id="feature" sketch:type="MSLayerGroup" transform="translate(398.000000, 1198.000000)">
                <g id="2" transform="translate(686.000000, 213.000000)" sketch:type="MSShapeGroup">
                    <g id="Imported-Layers-Copy-5-+-Imported-Layers" transform="translate(0.000000, 9.000000)">
                        <g id="Imported-Layers-Copy-5">
                            <path d="M11.9085959,114.981917 L11.9085959,148.624774 L18.1464319,148.624774 L18.1464319,123.499096 L31.6144868,123.499096 L31.6144868,148.624774 L37.8523228,148.624774 L37.8523228,114.981917 L11.9085959,114.981917" id="Fill-1" fill="#E0CA5C"></path>
                            <path d="M37.3822168,119.39779 L25.3766508,115.644269 L12.4147112,119.464792 C10.8702798,119.919893 9.32272938,118.760705 9.32272938,117.148687 L9.32272938,68.5158788 L40.5119092,68.5158788 L40.5119092,117.093042 C40.5119092,118.721526 38.9345873,119.882986 37.3822168,119.39779" id="Fill-2" fill="#D1BD56"></path>
                            <path d="M37.3822168,118.829694 L25.3766508,115.076458 L12.4147112,118.89698 C10.8702798,119.352081 9.32272938,118.192893 9.32272938,116.580875 L9.32272938,67.9480669 L40.5119092,67.9480669 L40.5119092,116.52523 C40.5119092,118.153714 38.9345873,119.315174 37.3822168,118.829694" id="Fill-3" fill="#E0CA5C"></path>
                            <path d="M37.3819332,118.829694 C38.9345873,119.315174 40.5119092,118.153714 40.5119092,116.52523 L40.5119092,67.9480669 L24.6678058,67.9480669 L24.6678058,115.285412 L25.3766508,115.076458 L37.3819332,118.829694" id="Fill-4" fill="#FAE991"></path>
                            <path d="M33.1254608,84.583821 L24.7625075,97.7581935 L16.6320554,84.5278915 C15.6960965,82.7761917 15.2064264,80.8200796 15.2064264,78.8335895 L15.2064264,67.9480669 L34.6282122,67.9480669 L34.6282122,78.747566 C34.6282122,80.7888499 34.1110389,82.7969168 33.1254608,84.583821" id="Fill-5" fill="#FFFEE5"></path>
                            <path d="M27.8508034,90.2676184 L25.0814878,94.8245931 L21.9838351,90.2676184 L24.0650041,70.3141392 L25.7696345,70.3141392 L27.8508034,90.2676184" id="Fill-6" fill="#E0CA5C"></path>
                            <path d="M27.2740871,69.1455823 L22.5602679,69.1455823 C22.0924302,69.1455823 21.7096539,68.7623092 21.7096539,68.2938644 L21.7096539,50.2513562 C21.7096539,49.7829114 22.0924302,49.3996383 22.5602679,49.3996383 L27.2740871,49.3996383 C27.7419248,49.3996383 28.1247011,49.7829114 28.1247011,50.2513562 L28.1247011,68.2938644 C28.1247011,68.7623092 27.7419248,69.1455823 27.2740871,69.1455823" id="Fill-7" fill="#F2E080"></path>
                            <path d="M25.023079,14.3315732 L4.92987517,14.3315732 L4.92987517,53.6443165 C4.92987517,54.886689 5.57747596,56.0393472 6.63847515,56.6838137 L19.6919975,64.6147269 C22.9679955,66.6049078 27.0778788,66.6049078 30.3538769,64.6147269 L43.4073992,56.6838137 C44.4683984,56.0390633 45.1162827,54.886689 45.1162827,53.6443165 L45.1162827,14.3315732 L25.023079,14.3315732" id="Fill-8" fill="#FAE991"></path>
                            <path d="M45.1162827,18.6432532 L22.2565987,18.6432532 L28.2001222,48.4533797 L24.4197101,48.4391844 L24.2305902,66.0740036 C24.4954147,66.0944448 24.7608063,66.1046655 25.0261979,66.1046655 C26.8717467,66.1046655 28.7167285,65.6092495 30.3538769,64.6147269 L43.4073992,56.6838137 C44.4683984,56.0390633 45.1162827,54.886689 45.1162827,53.6443165 L45.1162827,18.6432532" id="Fill-9" fill="#FEFAD3"></path>
                            <path d="M4.24116138,46.1347197 L0.980474398,46.1347197 C0.512636701,46.1347197 0.129860403,45.7514467 0.129860403,45.2830018 L0.129860403,36.6238698 C0.129860403,36.155425 0.512636701,35.7721519 0.980474398,35.7721519 L4.24116138,35.7721519 C4.70899907,35.7721519 5.09177537,36.155425 5.09177537,36.6238698 L5.09177537,45.2830018 C5.09177537,45.7514467 4.70899907,46.1347197 4.24116138,46.1347197" id="Fill-10" fill="#FFFEE5"></path>
                            <path d="M9.86485403,23.5641953 L6.46239805,27.1604322 C4.59104727,27.1604322 4.38293038,26.2896926 4.38293038,24.4159132 L1.83108839,11.6401447 C1.83108839,9.76636528 4.77988357,7.94936709 6.65123436,7.94936709 L11.7549183,7.94936709 C13.6262691,7.94936709 15.1573743,9.48245931 15.1573743,11.3562387 L15.1573743,18.0754412 C15.1573743,19.9492206 11.7549183,21.6713942 9.86485403,23.5641953" id="Fill-11" fill="#E0CA5C"></path>
                            <path d="M28.2001222,19.1636528 C28.2001222,19.1636528 32.3341062,19.5943382 32.5949612,24.5578662 C32.7367302,27.2549729 31.0355022,27.6808318 31.0355022,27.6808318 C31.0355022,27.6808318 34.0126512,27.6828192 34.0126512,22.7124774 C34.0126512,18.4538879 30.6101952,16.8924051 30.6101952,16.8924051 L28.2001222,19.1636528" id="Fill-12" fill="#E0CA5C"></path>
                            <path d="M49.0401651,46.1347197 L45.7794781,46.1347197 C45.3116404,46.1347197 44.9288641,45.7514467 44.9288641,45.2830018 L44.9288641,36.6238698 C44.9288641,36.155425 45.3116404,35.7721519 45.7794781,35.7721519 L49.0401651,35.7721519 C49.5080028,35.7721519 49.8907791,36.155425 49.8907791,36.6238698 L49.8907791,45.2830018 C49.8907791,45.7514467 49.5080028,46.1347197 49.0401651,46.1347197" id="Fill-13" fill="#F2E080"></path>
                            <path d="M15.8662193,53.8001808 C20.8281343,57.4909584 27.3495082,58.4846293 33.8708822,54.3679928" id="Stroke-14" stroke="#E0CA5C" stroke-width="2"></path>
                            <path d="M28.6254292,33.0750452 C30.1848882,30.6618445 35.2885722,29.2423146 38.1239522,33.3589512" id="Stroke-15" stroke="#E0CA5C" stroke-width="2" stroke-linecap="round"></path>
                            <path d="M11.424313,33.0750452 C12.983772,30.6618445 18.087456,29.2423146 20.922836,33.3589512" id="Stroke-16" stroke="#C7B352" stroke-width="2" stroke-linecap="round"></path>
                            <path d="M34.7214962,40.7879186 L32.642312,40.7879186 C32.1744743,40.7879186 31.791698,40.4046456 31.791698,39.9362007 L31.791698,37.8540344 C31.791698,37.3855895 32.1744743,37.0023165 32.642312,37.0023165 L34.7214962,37.0023165 C35.1893339,37.0023165 35.5721102,37.3855895 35.5721102,37.8540344 L35.5721102,39.9362007 C35.5721102,40.4046456 35.1893339,40.7879186 34.7214962,40.7879186" id="Fill-17" fill="#E0CA5C"></path>
                            <path d="M16.953304,40.7879186 L14.8738363,40.7879186 C14.4059986,40.7879186 14.0232223,40.4046456 14.0232223,39.9362007 L14.0232223,37.8540344 C14.0232223,37.3855895 14.4059986,37.0023165 14.8738363,37.0023165 L16.953304,37.0023165 C17.4211417,37.0023165 17.803918,37.3855895 17.803918,37.8540344 L17.803918,39.9362007 C17.803918,40.4046456 17.4211417,40.7879186 16.953304,40.7879186" id="Fill-18" fill="#C7B352"></path>
                            <path d="M42.2471617,20.1573237 L10.7744439,20.1573237 C8.90309314,20.1573237 7.37198795,18.6242315 7.37198795,16.7504521 L7.37198795,7.66546112 C7.37198795,5.79168174 8.90309314,4.25858951 10.7744439,4.25858951 L38.9011298,4.58053888 C46.9164655,4.58053888 45.6496177,0.0945406872 45.6496177,0.0945406872 C45.6496177,0.0945406872 48.4849977,4.06922423 48.2958778,11.6401447 C48.106758,19.2181627 44.1185125,20.1573237 42.2471617,20.1573237" id="Fill-19" fill="#E0CA5C"></path>
                            <path d="M50.0441731,97.9481266 C49.7719767,97.9481266 49.4955271,97.9018499 49.2244648,97.8036184 L41.1439154,94.8771157 L38.5747776,70.6636275 C38.4341427,69.3380705 39.3930682,68.1499241 40.7166236,68.0091067 C42.0393284,67.869141 43.227069,68.8281754 43.3677039,70.1537324 L45.6187121,91.3651989 L50.8644486,93.2650976 C52.1159853,93.7184955 52.7635861,95.1019693 52.3107759,96.3554141 C51.9560699,97.3374448 51.0306018,97.9481266 50.0441731,97.9481266" id="Fill-20" fill="#D1BF5C"></path>
                            <path d="M5.10538519,116.401447 C5.07476309,116.401447 5.04414099,116.400879 5.01323535,116.399743 C3.6831586,116.349492 2.64540952,115.229483 2.69531221,113.89768 L3.40812674,94.9123201 L6.54008747,69.9657866 C6.70624073,68.6430687 7.91212784,67.7064629 9.23199722,67.872264 C10.5527172,68.0386329 11.4886761,69.2452333 11.3228064,70.5679512 L8.21693119,95.3046781 L7.51205572,114.078812 C7.46328719,115.379669 6.39463247,116.401447 5.10538519,116.401447" id="Fill-21" fill="#F2E080"></path>
                            <path d="M47.4926147,156.858047 L31.6144868,156.858047 L31.6144868,150.896022 L37.0017088,151.037975 L42.6724687,153.309222 L46.7126017,155.131615 C47.1469819,155.144391 47.4926147,155.500693 47.4926147,155.936204 L47.4926147,156.858047" id="Fill-22" fill="#E0CA5C"></path>
                            <path d="M2.41007298,156.432188 L18.2882009,156.432188 L18.2882009,150.470163 L12.9009789,150.612116 L7.23021895,152.883363 L3.19008602,154.705756 C2.7557058,154.718532 2.41007298,155.074834 2.41007298,155.510345 L2.41007298,156.432188" id="Fill-23" fill="#E0CA5C"></path>
                            <path d="M57.8094283,87.4382116 L54.251877,87.4382116 L54.251877,81.6709458 C54.251877,80.546962 53.3417201,79.6356239 52.2191931,79.6356239 C51.0963826,79.6356239 50.1862257,80.546962 50.1862257,81.6709458 L50.1862257,98.6331917 C50.1862257,99.1930542 50.6435725,99.6509946 51.2027094,99.6509946 L57.8094283,99.6509946 C58.3682817,99.6509946 58.8256285,99.1930542 58.8256285,98.6331917 L58.8256285,88.4560145 C58.8256285,87.8961519 58.3682817,87.4382116 57.8094283,87.4382116" id="Fill-24" fill="#FFFEE5"></path>
                            <path d="M7.05357478,111.435363 C6.76890263,111.0237 6.23046397,110.897929 5.79580022,111.115685 C5.57747596,111.045844 5.34525834,111.007233 5.10368397,111.007233 C3.85101309,111.007233 2.83537998,112.024184 2.83537998,113.278481 L2.83537998,120.660036 C2.83537998,121.914333 3.85101309,122.931284 5.10368397,122.931284 C6.35663838,122.931284 7.37198795,121.914333 7.37198795,120.660036 L7.37198795,115.387051 L7.79729495,116.002275 L7.79729495,119.666365 C7.79729495,120.215156 8.24159899,120.660036 8.78967794,120.660036 C9.33775689,120.660036 9.78206094,120.215156 9.78206094,119.666365 L9.78206094,115.381089 L7.05357478,111.435363" id="Fill-25" fill="#FFFEE5"></path>
                        </g>
                        <g id="Imported-Layers" transform="translate(80.843373, 25.172996)">
                            <path d="M70.0020571,0.652096519 L83.2550692,0.652096519 L83.2550692,124.074794 L70.0020571,124.074794 L70.0020571,0.652096519 Z" id="Fill-1" fill="#FFE45B"></path>
                            <path d="M46.4682448,23.1297401 L59.7212569,23.1297401 L59.7212569,124.074794 L46.4682448,124.074794 L46.4682448,23.1297401 Z" id="Fill-2" fill="#FFFEE5"></path>
                            <path d="M23.0803197,34.1642197 L36.3333317,34.1642197 L36.3333317,124.074794 L23.0803197,124.074794 L23.0803197,34.1642197 Z" id="Fill-3" fill="#FFFEE5"></path>
                            <path d="M0.500932301,47.6508058 L13.7539443,47.6508058 L13.7539443,124.074794 L0.500932301,124.074794 L0.500932301,47.6508058 Z" id="Fill-4" fill="#FFFEE5"></path>
                            <path d="M83.6556942,130.584916 L0,130.584916" id="Stroke-5" stroke="#FFFEE5" stroke-width="2"></path>
                        </g>
                    </g>
                </g>
            </g>
        </g>
    </g>
</svg>
