<?xml version="1.0" encoding="UTF-8" standalone="no"?>
<svg width="24px" height="16px" viewBox="0 0 24 16" version="1.1" xmlns="http://www.w3.org/2000/svg" xmlns:xlink="http://www.w3.org/1999/xlink" xmlns:sketch="http://www.bohemiancoding.com/sketch/ns">
    <!-- Generator: Sketch 3.3.2 (12043) - http://www.bohemiancoding.com/sketch -->
    <title>Imported Layers Copy</title>
    <desc>Created with Sketch.</desc>
    <defs></defs>
    <g id="Welcome" stroke="none" stroke-width="1" fill="none" fill-rule="evenodd" sketch:type="MSPage">
        <g id="Web-Friend" sketch:type="MSArtboardGroup" transform="translate(-359.000000, -22.000000)" fill="#FFFFFF">
            <g id="Header-Copy" sketch:type="MSLayerGroup" transform="translate(336.000000, 0.000000)">
                <g id="Imported-Layers-Copy" transform="translate(23.000000, 22.000000)" sketch:type="MSShapeGroup">
                    <path d="M23,2 C23.552,2 24,1.552 24,1 C24,0.448 23.552,0 23,0 L1,0 C0.448,0 0,0.448 0,1 C0,1.552 0.448,2 1,2 L23,2" id="Fill-1"></path>
                    <path d="M23,9 C23.552,9 24,8.552 24,8 C24,7.448 23.552,7 23,7 L1,7 C0.448,7 0,7.448 0,8 C0,8.552 0.448,9 1,9 L23,9" id="Fill-2"></path>
                    <path d="M23,16 C23.552,16 24,15.552 24,15 C24,14.448 23.552,14 23,14 L1,14 C0.448,14 0,14.448 0,15 C0,15.552 0.448,16 1,16 L23,16" id="Fill-3"></path>
                </g>
            </g>
        </g>
    </g>
</svg>