<?xml version="1.0" encoding="UTF-8" standalone="no"?>
<svg width="18px" height="24px" viewBox="0 0 18 24" version="1.1" xmlns="http://www.w3.org/2000/svg" xmlns:xlink="http://www.w3.org/1999/xlink" xmlns:sketch="http://www.bohemiancoding.com/sketch/ns">
    <!-- Generator: Sketch 3.3.2 (12043) - http://www.bohemiancoding.com/sketch -->
    <title>Fill 1</title>
    <desc>Created with Sketch.</desc>
    <defs></defs>
    <g id="Welcome" stroke="none" stroke-width="1" fill="none" fill-rule="evenodd" sketch:type="MSPage">
        <g id="Web-Friend" sketch:type="MSArtboardGroup" transform="translate(-1067.000000, -17.000000)" fill="#FFFFFF">
            <g id="Header-Copy" sketch:type="MSLayerGroup" transform="translate(336.000000, 0.000000)">
                <path d="M732,27 C731.448,27 731,27.448 731,28 L731,40 C731,40.552 731.448,41 732,41 L748,41 C748.552,41 749,40.552 749,40 L749,28 C749,27.448 748.552,27 748,27 L745,27 C744.448,27 744,27.448 744,28 C744,28.552 744.448,29 745,29 L747,29 L747,39 L733,39 L733,29 L735,29 C735.552,29 736,28.552 736,28 C736,27.448 735.552,27 735,27 L732,27 Z M739,36 C739,36.552 739.448,37 740,37 C740.552,37 741,36.552 741,36 L741,20.414 L744.293,23.707 C744.683,24.098 745.317,24.098 745.707,23.707 C746.098,23.317 746.098,22.683 745.707,22.293 L740.708,17.293 C740.512,17.098 740.256,17 740,17 C739.744,17 739.488,17.098 739.293,17.293 L734.293,22.293 C733.902,22.683 733.902,23.317 734.293,23.707 C734.683,24.098 735.317,24.098 735.707,23.707 L739,20.414 L739,36 Z" id="Fill-1" sketch:type="MSShapeGroup"></path>
            </g>
        </g>
    </g>
</svg>